<svg id="Layer_4" data-name="Layer 4" xmlns="http://www.w3.org/2000/svg" viewBox="0 0 600 500"><defs><style>.cls-1{fill:#5daca8;}.cls-2{fill:#427876;}.cls-3,.cls-4,.cls-5{fill:none;stroke-miterlimit:10;}.cls-3,.cls-4{stroke:#231f20;}.cls-3,.cls-5{stroke-width:5px;}.cls-4{stroke-width:3px;}.cls-5{stroke:#427876;}</style></defs><circle class="cls-1" cx="470.08" cy="172.1" r="9.77"/><ellipse class="cls-1" cx="49.44" cy="383.78" rx="4.82" ry="5.31" transform="translate(-336.51 411.54) rotate(-86.77)"/><ellipse class="cls-2" cx="531.58" cy="351.73" rx="5.2" ry="4.55" transform="translate(83.38 804.95) rotate(-78.81)"/><path class="cls-3" d="M461.9,407.42a3.78,3.78,0,0,0-4.17,1.34,6.92,6.92,0,0,0-1.25,3.12,7.18,7.18,0,0,0,1.35,5.11,6.11,6.11,0,0,0,3.09,2.3c3.38,1,7.34-2,8.6-5.4.13-.36,1.26-3.47-.14-4.93-.91-.94-2.22-.5-5.07-1A19.64,19.64,0,0,1,461.9,407.42Z"/><ellipse class="cls-4" cx="187.58" cy="176.45" rx="4.6" ry="5.13"/><ellipse class="cls-5" cx="205.52" cy="467.51" rx="6.13" ry="6.55"/></svg>