<svg id="Layer_2" data-name="Layer 2" xmlns="http://www.w3.org/2000/svg" viewBox="0 0 600 500"><defs><style>.cls-1{fill:#464e52;}</style></defs><path class="cls-1" d="M177.08,173.26c-19.24,1.18-75,9-104.88,58.84-.42.7-.87,1.4-1.35,2.06-3.49,4.77-20.25,30.32.11,56.5a28,28,0,0,1,5.56,12c1,5.68.24,13.11-1.26,17-2.76,7.15,15.5,123,125.86,136.15a26.6,26.6,0,0,1,5.78,1.31c4.35,1.52,12.7,4.38,16.9,5.37,21.09,5,87.05,1.43,133.28-28.35a26,26,0,0,1,5.94-2.85c8-2.67,33.11-14.66,69.53-66.17.4-.55.76-1.14,1.11-1.72,1.92-3.21,11.92-17.24,49.13-36.12C525.32,305.73,550,269,550.08,242.89c.13-28.09-33-69.83-115.53-80.62s-153,40.63-178.38,29.2c-20.19-9.09-54-15.36-67.05-17.55A53.35,53.35,0,0,0,177.08,173.26Z"/></svg>