<svg id="Layer_6" data-name="Layer 6" xmlns="http://www.w3.org/2000/svg" viewBox="0 0 600 500"><defs><style>.cls-1{fill:#e2f1f1;}.cls-2{fill:#fff;}.cls-3,.cls-4,.cls-5{fill:none;}.cls-3{stroke:#e2f1f1;stroke-miterlimit:10;stroke-width:2px;}.cls-4,.cls-5{stroke:#fff;stroke-linecap:round;stroke-linejoin:round;}.cls-4{stroke-width:0.5px;}.cls-5{stroke-width:2.5px;}</style></defs><rect class="cls-1" x="394.01" y="69.54" width="82.7" height="61.86" rx="2.95"/><rect class="cls-2" x="399.45" y="76.67" width="71.95" height="44.2" rx="1.84"/><rect class="cls-1" x="409.72" y="81.12" width="51.61" height="12.57"/><rect class="cls-1" x="409.72" y="96.56" width="19.73" height="20.36"/><rect class="cls-1" x="431.05" y="96.56" width="30.1" height="1.07"/><rect class="cls-1" x="431.05" y="100.42" width="30.1" height="1.07"/><rect class="cls-1" x="431.05" y="104.27" width="30.1" height="1.07"/><rect class="cls-1" x="431.05" y="108.13" width="30.1" height="1.07"/><rect class="cls-1" x="431.05" y="111.99" width="30.1" height="1.07"/><rect class="cls-1" x="431.05" y="115.85" width="30.1" height="1.07"/><rect class="cls-1" x="146.86" y="78.19" width="62.34" height="44.57" rx="3.15"/><rect class="cls-2" x="154.56" y="84.13" width="46.95" height="31.4" rx="3.15"/><circle class="cls-2" cx="178.03" cy="119.43" r="1.66"/><path class="cls-1" d="M180.86,89.63,193,72.19s3-4.68,7.4-2a4.8,4.8,0,0,1,1.95,6.72L187.58,95.08A15.53,15.53,0,0,1,180.86,89.63Z"/><path class="cls-3" d="M187.19,93.81s3.6,10.92-9.16,9.65a2.88,2.88,0,0,0-4.19,1.65s-3.52-12.37,6.91-14.41S187.19,93.81,187.19,93.81Z"/><rect class="cls-1" x="256.89" y="20.11" width="42.58" height="35.63" rx="1.14"/><line class="cls-4" x1="258.5" y1="25.01" x2="298.03" y2="25.01"/><circle class="cls-2" cx="259.69" cy="22.61" r="0.74"/><circle class="cls-2" cx="262.31" cy="22.61" r="0.74"/><circle class="cls-2" cx="264.88" cy="22.61" r="0.74"/><polyline class="cls-5" points="270.96 33.08 264.14 40.25 270.95 47.06"/><polyline class="cls-5" points="284.93 33.08 291.75 40.25 284.94 47.06"/><line class="cls-5" x1="280.55" y1="32.84" x2="275.54" y2="47.38"/><rect class="cls-1" x="374.58" y="83.98" width="29.8" height="55.13" rx="2.73"/><rect class="cls-2" x="378.72" y="88.02" width="21.83" height="44.98" rx="1.91"/><circle class="cls-2" cx="389.64" cy="136.3" r="1.59"/><rect class="cls-1" x="380.29" y="91.47" width="18.39" height="10.18"/><rect class="cls-1" x="380.29" y="104.78" width="18.39" height="1.36"/><rect class="cls-1" x="380.29" y="109.28" width="18.39" height="1.36"/><rect class="cls-1" x="380.29" y="113.77" width="18.39" height="1.36"/><rect class="cls-1" x="380.29" y="118.27" width="18.39" height="1.36"/><rect class="cls-1" x="380.29" y="122.76" width="18.39" height="1.36"/><rect class="cls-1" x="380.29" y="127.26" width="18.39" height="1.36"/></svg>