<svg id="Layer_5" data-name="Layer 5" xmlns="http://www.w3.org/2000/svg" viewBox="0 0 600 500"><defs><style>.cls-1{fill:#f8e4c7;}.cls-2{fill:#5daca8;}.cls-3{fill:#5f6e76;}.cls-4{fill:#f1cc9b;}</style></defs><path class="cls-1" d="M140.29,339.24a7.4,7.4,0,0,0-2.84,3.89c-1.62,5.31-4.53,17.95,2.72,22.43,9.27,5.73,26.74,13.37,66,11.73l8.1.12a7.35,7.35,0,0,0,7.45-7.35V358.17a7.3,7.3,0,0,0-2.19-5.23C210.65,344.2,175.9,314.29,140.29,339.24Z"/><path class="cls-1" d="M443.36,343.35a7.4,7.4,0,0,1,2.84,3.89c1.62,5.31,4.53,17.95-2.72,22.43-9.27,5.73-26.74,13.37-66,11.73l-8.1.12a7.35,7.35,0,0,1-7.45-7.35V362.28a7.3,7.3,0,0,1,2.19-5.23C373,348.32,407.75,318.4,443.36,343.35Z"/><path class="cls-2" d="M277.49,211s-63.06-8.9-81.85,45.1c0,0-8.66-1.79-14.62,21.18,0,0-.9,4.51-4.32,5.55s-6.09,2.82-9.8,10.84c0,0-3.71-1.64-6.83,4s-3.56,7.58-5.19,8.47S148.2,302,144.34,313c0,0-4.16,5.19-5.05,7.57s-4.6,15.44-1,19.15c0,0,.3,1.78,2.23.74s19-22.71,61.76-.89,193.22,4.05,193.22,4.05,37.09-26.49,52.66,13.68h0c1-.05-1.13-8.71.67-11.66s4.27-22.87-12.34-29.23c0,0-.29-3.13-.67-9.87s-2.65-10.44-9.39-18.8S420,281.81,419.65,272s-11.11-17.46-13.48-23S389,217.47,362.41,217.47l-21.77.42Z"/><rect class="cls-3" x="203.41" y="304.52" width="192.05" height="127.75" rx="8.86"/><path class="cls-1" d="M272.4,189.26s10.83,54.83,9.29,58.36,17.22,17.69,27.9,15.92,20.57-10.41,20.77-15.13,5.74-40.48,10.09-43.92S272.4,189.26,272.4,189.26Z"/><path class="cls-4" d="M266,190.06s7,24.8,15.7,32.78c0,0,14.42,14.63,19.25,14.77,0,0,4.62.7,7.11,0,0,0,10.69-.41,21.11-13.05,0,0,12.6-14.35,15.64-24.73s1.61-57.31,1.61-57.31-15.06-35.11-46.89-17.14-41.76,15.52-39.69,31.45S266,190.06,266,190.06Z"/><path class="cls-1" d="M264.92,186.72s6.95,24.8,15.51,32.77c0,0,14.25,14.63,19,14.78,0,0,4.56.69,7,0,0,0,10.56-.41,20.86-13.06,0,0,12.45-14.34,15.44-24.72s1.6-57.31,1.6-57.31S329.49,104.07,298.05,122s-41.25,15.52-39.21,31.44S264.92,186.72,264.92,186.72Z"/><path d="M308.18,99.94s-20.33-2.42-38.83,15.47-24.88,47-24.88,47-4.85,16.68,0,32.15,4.64,30.85,3.64,33.68C242.5,244.14,231.49,272,244,286.85a14.42,14.42,0,0,1,1.29-8.64S251,301.55,272,303.61c0,0-8.38-12.25-5.93-26.18a25,25,0,0,0,5.75,9.8c7.74,8.06,18.43,7.86,20.46,7.79-3.87-3.3-15.19-13.81-17.82-30.93a48.14,48.14,0,0,1,.64-17.82s4.72,9.33,15.17,6.44c0,0-9.94-4.64-10.63-18a15.23,15.23,0,0,0,11.89-.16C271,217.67,270,195.83,269.93,174.68a16.7,16.7,0,0,1,.64-7.53s.19,7.1,1.69,8.6,7.47,1.31,10.09.75,6.92-1.12,7.66-.19,6.73-22.06,5.05-26.73c0,0,3.55,7.29.38,23.74,0,0-.88,1.37,2.8.6,0,0,4.65,1.26,6.68-1.07s4.94-7.55,6.3-9.78c0,0-.87,10-2.71,10.75s8.43,2.23,10.75,1.07,6.2-10.13,6.49-26.69c0,0,3.68,19.37-2.42,26.73,0,0,10.36,1.36,14.14-1.74S339.8,162.73,340,157c0,0,3.76,67.12-15.08,77.57,0,0,10.69,2.7,14.8-4,0,0-4.45,19.7-8.22,19,0,0,8.73,1,12.67-7.2,0,0-9.25,29.64-17.81,33.23,0,0,9.08,1.54,15.93-11,0,0-2.23,32.37-14.56,37.34,0,0,14.56,3.94,33.06-23.81,0,0,1.2,6.51-1.72,7.54,0,0,22.17-6.44,8.4-49.85,0,0-9.77-17.12-3.09-44.36s-6.33-55.5-13-66.63S331.63,100.14,308.18,99.94Z"/></svg>