<svg id="Layer_3" data-name="Layer 3" xmlns="http://www.w3.org/2000/svg" viewBox="0 0 600 500"><defs><style>.cls-1{fill:#e2f1f1;}</style></defs><path class="cls-1" d="M177.49,124.48s-49.74,10.29-70.09,98.08a28.64,28.64,0,0,1-1.32,4.22c-3.35,8.33-16.29,39.28-30.52,58-16.25,21.38-19.07,63.77-13.39,78.49A23,23,0,0,1,63.24,367a36.44,36.44,0,0,1,.3,13.65c-1.59,8.74,9.35,69,55,91.09s101.11-6.39,117.82-18.68S316,405.42,399,444.72s120.09,8.17,144-35.53,8.18-86.77,3.15-96.51-32.38-51.56-84.25-64.13c-51.54-12.5-133.23-29.93-172.13-78.06-.43-.54-.85-1.1-1.24-1.67C283.63,161.77,242.84,106.4,177.49,124.48Z"/></svg>