<svg width="479" height="87" viewBox="0 0 479 87" fill="none" xmlns="http://www.w3.org/2000/svg">
<path d="M20.3281 30H15.7578V17.3047H6.08984V30H1.53906V1.5625H6.08984V13.457H15.7578V1.5625H20.3281V30Z" fill="black"/>
<path d="M35.8945 30.3906C34.332 30.3906 32.9062 30.1302 31.6172 29.6094C30.3281 29.0885 29.2214 28.3724 28.2969 27.4609C27.3854 26.5495 26.6758 25.4753 26.168 24.2383C25.6602 22.9883 25.4062 21.6406 25.4062 20.1953V19.3945C25.4062 17.7148 25.6732 16.2044 26.207 14.8633C26.7539 13.5221 27.4766 12.3763 28.375 11.4258C29.2865 10.4753 30.3411 9.74609 31.5391 9.23828C32.75 8.73047 34.0195 8.47656 35.3477 8.47656C36.8841 8.47656 38.2383 8.73698 39.4102 9.25781C40.582 9.76562 41.5586 10.4883 42.3398 11.4258C43.1341 12.3503 43.7331 13.4505 44.1367 14.7266C44.5404 16.0026 44.7422 17.4023 44.7422 18.9258V20.8984H30.0938C30.1719 21.7188 30.3737 22.4805 30.6992 23.1836C31.0247 23.8867 31.4479 24.4987 31.9688 25.0195C32.5026 25.5273 33.1211 25.931 33.8242 26.2305C34.5404 26.5169 35.3216 26.6602 36.168 26.6602C37.3529 26.6602 38.4401 26.4258 39.4297 25.957C40.4323 25.4883 41.2461 24.8438 41.8711 24.0234L44.4102 26.4062C44.0716 26.9141 43.6354 27.4089 43.1016 27.8906C42.5677 28.3594 41.9427 28.7826 41.2266 29.1602C40.5104 29.5247 39.7031 29.8177 38.8047 30.0391C37.9193 30.2734 36.9492 30.3906 35.8945 30.3906ZM35.3281 12.2461C34.6771 12.2461 34.0716 12.3633 33.5117 12.5977C32.9518 12.832 32.4505 13.1771 32.0078 13.6328C31.5651 14.0755 31.1875 14.6224 30.875 15.2734C30.5755 15.9115 30.3607 16.6406 30.2305 17.4609H40.1328V17.1094C40.0938 16.4844 39.9701 15.8854 39.7617 15.3125C39.5664 14.7266 39.2734 14.2057 38.8828 13.75C38.4922 13.2943 37.9974 12.9297 37.3984 12.6562C36.8125 12.3828 36.1224 12.2461 35.3281 12.2461Z" fill="black"/>
<path d="M63.5508 30C63.4206 29.7396 63.3099 29.4336 63.2188 29.082C63.1406 28.7305 63.069 28.3529 63.0039 27.9492C62.6784 28.2878 62.3073 28.6068 61.8906 28.9062C61.487 29.1927 61.0312 29.4466 60.5234 29.668C60.0286 29.8893 59.4883 30.0651 58.9023 30.1953C58.3294 30.3255 57.7109 30.3906 57.0469 30.3906C55.9271 30.3906 54.9115 30.2344 54 29.9219C53.1016 29.5964 52.3268 29.1536 51.6758 28.5938C51.0378 28.0208 50.543 27.3503 50.1914 26.582C49.8398 25.8138 49.6641 24.9805 49.6641 24.082C49.6641 21.8164 50.5039 20.0846 52.1836 18.8867C53.8763 17.6888 56.2982 17.0898 59.4492 17.0898H62.8672V15.7031C62.8672 14.5833 62.4896 13.6979 61.7344 13.0469C60.9792 12.3828 59.9115 12.0508 58.5312 12.0508C57.9062 12.0508 57.3594 12.1289 56.8906 12.2852C56.4219 12.4284 56.0312 12.6302 55.7188 12.8906C55.4062 13.151 55.1719 13.457 55.0156 13.8086C54.8594 14.1602 54.7812 14.5378 54.7812 14.9414H50.1133C50.1133 14.1211 50.3021 13.3268 50.6797 12.5586C51.0703 11.7773 51.6367 11.0872 52.3789 10.4883C53.1211 9.8763 54.026 9.38802 55.0938 9.02344C56.1745 8.65885 57.4049 8.47656 58.7852 8.47656C60.0352 8.47656 61.194 8.63281 62.2617 8.94531C63.3294 9.24479 64.2539 9.70052 65.0352 10.3125C65.8164 10.9115 66.4284 11.6667 66.8711 12.5781C67.3138 13.4766 67.5352 14.5312 67.5352 15.7422V25.1562C67.5352 26.0807 67.6003 26.9271 67.7305 27.6953C67.8737 28.4505 68.0755 29.1081 68.3359 29.668V30H63.5508ZM57.9258 26.6211C58.5247 26.6211 59.0846 26.5495 59.6055 26.4062C60.1393 26.25 60.6146 26.0547 61.0312 25.8203C61.4609 25.5729 61.8255 25.293 62.125 24.9805C62.4375 24.668 62.6849 24.349 62.8672 24.0234V20.0586H59.8984C57.9974 20.0586 56.5911 20.3646 55.6797 20.9766C54.7812 21.5885 54.332 22.4609 54.332 23.5938C54.332 24.0234 54.4036 24.4271 54.5469 24.8047C54.6901 25.1693 54.9049 25.4883 55.1914 25.7617C55.4909 26.0221 55.862 26.2305 56.3047 26.3867C56.7604 26.543 57.3008 26.6211 57.9258 26.6211Z" fill="black"/>
<path d="M73.4727 19.2773C73.4727 17.6758 73.668 16.2109 74.0586 14.8828C74.4492 13.5547 75.0091 12.4154 75.7383 11.4648C76.4674 10.5143 77.3464 9.77865 78.375 9.25781C79.4167 8.73698 80.582 8.47656 81.8711 8.47656C83.0299 8.47656 84.0521 8.67839 84.9375 9.08203C85.8229 9.47266 86.5977 10.0391 87.2617 10.7812V0H91.9492V30H87.7109L87.4766 27.8516C86.8125 28.6719 86.0117 29.3034 85.0742 29.7461C84.1497 30.1758 83.069 30.3906 81.832 30.3906C80.556 30.3906 79.4036 30.1237 78.375 29.5898C77.3464 29.043 76.4674 28.2943 75.7383 27.3438C75.0221 26.3932 74.4622 25.2669 74.0586 23.9648C73.668 22.6497 73.4727 21.224 73.4727 19.6875V19.2773ZM78.1406 19.6875C78.1406 20.638 78.2318 21.5299 78.4141 22.3633C78.5964 23.1966 78.8828 23.9258 79.2734 24.5508C79.6771 25.1758 80.1849 25.6706 80.7969 26.0352C81.4219 26.3867 82.1641 26.5625 83.0234 26.5625C84.0911 26.5625 84.9635 26.3346 85.6406 25.8789C86.3177 25.4102 86.8581 24.7852 87.2617 24.0039V14.8242C86.8581 14.056 86.3112 13.444 85.6211 12.9883C84.944 12.5326 84.0911 12.3047 83.0625 12.3047C82.1901 12.3047 81.4414 12.487 80.8164 12.8516C80.2044 13.2161 79.6966 13.7174 79.293 14.3555C78.9023 14.9935 78.6094 15.7357 78.4141 16.582C78.2318 17.4284 78.1406 18.3268 78.1406 19.2773V19.6875Z" fill="black"/>
<path d="M99.1367 8.86719H110.406V26.1328H116.676V30H99.1367V26.1328H105.699V12.7539H99.1367V8.86719ZM105.309 3.39844C105.309 2.66927 105.543 2.07031 106.012 1.60156C106.48 1.11979 107.138 0.878906 107.984 0.878906C108.844 0.878906 109.508 1.11979 109.977 1.60156C110.458 2.07031 110.699 2.66927 110.699 3.39844C110.699 4.1276 110.458 4.73307 109.977 5.21484C109.508 5.68359 108.844 5.91797 107.984 5.91797C107.138 5.91797 106.48 5.68359 106.012 5.21484C105.543 4.73307 105.309 4.1276 105.309 3.39844Z" fill="black"/>
<path d="M126.363 8.86719L126.656 11.7969C127.424 10.7422 128.349 9.92839 129.43 9.35547C130.523 8.76953 131.734 8.47656 133.062 8.47656C134.143 8.47656 135.126 8.63281 136.012 8.94531C136.91 9.25781 137.678 9.74609 138.316 10.4102C138.967 11.0742 139.469 11.9336 139.82 12.9883C140.185 14.043 140.367 15.3125 140.367 16.7969V30H135.699V16.875C135.699 16.0026 135.595 15.2734 135.387 14.6875C135.191 14.1016 134.905 13.6328 134.527 13.2812C134.163 12.9297 133.714 12.6823 133.18 12.5391C132.646 12.3828 132.04 12.3047 131.363 12.3047C130.335 12.3047 129.436 12.5326 128.668 12.9883C127.913 13.444 127.301 14.0625 126.832 14.8438V30H122.145V8.86719H126.363Z" fill="black"/>
<path d="M145.562 19.2773C145.562 17.6758 145.758 16.2109 146.148 14.8828C146.552 13.5547 147.125 12.4154 147.867 11.4648C148.609 10.5143 149.501 9.77865 150.543 9.25781C151.598 8.73698 152.776 8.47656 154.078 8.47656C155.341 8.47656 156.435 8.69141 157.359 9.12109C158.284 9.55078 159.078 10.1693 159.742 10.9766L159.938 8.86719H164.176V29.4336C164.176 30.8529 163.941 32.1094 163.473 33.2031C163.004 34.3099 162.346 35.2409 161.5 35.9961C160.667 36.7513 159.664 37.3242 158.492 37.7148C157.32 38.1185 156.031 38.3203 154.625 38.3203C154.052 38.3203 153.401 38.2552 152.672 38.125C151.956 38.0078 151.233 37.806 150.504 37.5195C149.775 37.2461 149.078 36.8815 148.414 36.4258C147.75 35.9831 147.184 35.4427 146.715 34.8047L148.941 32.0117C149.736 32.9492 150.589 33.6198 151.5 34.0234C152.424 34.4271 153.375 34.6289 154.352 34.6289C155.133 34.6289 155.842 34.5182 156.48 34.2969C157.118 34.0755 157.659 33.75 158.102 33.3203C158.544 32.8906 158.883 32.3568 159.117 31.7188C159.365 31.0938 159.488 30.3711 159.488 29.5508V28.125C158.824 28.8542 158.043 29.4141 157.145 29.8047C156.259 30.1953 155.224 30.3906 154.039 30.3906C152.75 30.3906 151.585 30.1237 150.543 29.5898C149.501 29.043 148.609 28.2943 147.867 27.3438C147.125 26.3932 146.552 25.2669 146.148 23.9648C145.758 22.6497 145.562 21.224 145.562 19.6875V19.2773ZM150.25 19.6875C150.25 20.638 150.348 21.5299 150.543 22.3633C150.738 23.1966 151.038 23.9258 151.441 24.5508C151.845 25.1758 152.359 25.6706 152.984 26.0352C153.622 26.3867 154.371 26.5625 155.23 26.5625C156.311 26.5625 157.19 26.3411 157.867 25.8984C158.544 25.4427 159.085 24.8372 159.488 24.082V14.7461C159.072 14.0039 158.525 13.4115 157.848 12.9688C157.171 12.526 156.311 12.3047 155.27 12.3047C154.41 12.3047 153.661 12.487 153.023 12.8516C152.398 13.2161 151.878 13.7174 151.461 14.3555C151.057 14.9935 150.751 15.7357 150.543 16.582C150.348 17.4284 150.25 18.3268 150.25 19.2773V19.6875Z" fill="black"/>
<path d="M176.637 27.207C176.637 26.7513 176.708 26.3216 176.852 25.918C177.008 25.5143 177.229 25.1693 177.516 24.8828C177.802 24.5833 178.154 24.349 178.57 24.1797C179 24.0104 179.488 23.9258 180.035 23.9258C180.582 23.9258 181.064 24.0104 181.48 24.1797C181.91 24.349 182.268 24.5833 182.555 24.8828C182.854 25.1693 183.076 25.5143 183.219 25.918C183.375 26.3216 183.453 26.7513 183.453 27.207C183.453 27.6628 183.375 28.0859 183.219 28.4766C183.076 28.8542 182.854 29.1862 182.555 29.4727C182.268 29.7591 181.91 29.9805 181.48 30.1367C181.064 30.306 180.582 30.3906 180.035 30.3906C179.488 30.3906 179 30.306 178.57 30.1367C178.154 29.9805 177.802 29.7591 177.516 29.4727C177.229 29.1862 177.008 28.8542 176.852 28.4766C176.708 28.0859 176.637 27.6628 176.637 27.207ZM176.637 10.5859C176.637 10.1302 176.708 9.70052 176.852 9.29688C177.008 8.89323 177.229 8.54818 177.516 8.26172C177.802 7.96224 178.154 7.72786 178.57 7.55859C179 7.38932 179.488 7.30469 180.035 7.30469C180.582 7.30469 181.064 7.38932 181.48 7.55859C181.91 7.72786 182.268 7.96224 182.555 8.26172C182.854 8.54818 183.076 8.89323 183.219 9.29688C183.375 9.70052 183.453 10.1302 183.453 10.5859C183.453 11.0417 183.375 11.4648 183.219 11.8555C183.076 12.2331 182.854 12.5651 182.555 12.8516C182.268 13.138 181.91 13.3659 181.48 13.5352C181.064 13.6914 180.582 13.7695 180.035 13.7695C179.488 13.7695 179 13.6914 178.57 13.5352C178.154 13.3659 177.802 13.138 177.516 12.8516C177.229 12.5651 177.008 12.2331 176.852 11.8555C176.708 11.4648 176.637 11.0417 176.637 10.5859Z" fill="black"/>
<path d="M227.652 18.9062H222.887V30H218.199V1.5625H227.184C228.642 1.57552 229.983 1.76432 231.207 2.12891C232.444 2.48047 233.512 3.01432 234.41 3.73047C235.309 4.43359 236.005 5.31901 236.5 6.38672C236.995 7.45443 237.242 8.70443 237.242 10.1367C237.242 11.1003 237.112 11.9792 236.852 12.7734C236.604 13.5547 236.253 14.2643 235.797 14.9023C235.341 15.5404 234.794 16.1003 234.156 16.582C233.518 17.0638 232.815 17.474 232.047 17.8125L238.062 29.7656V30H233.062L227.652 18.9062ZM222.887 15.1172H227.203C227.984 15.1172 228.701 15.0065 229.352 14.7852C230.003 14.5638 230.562 14.2513 231.031 13.8477C231.513 13.431 231.884 12.9297 232.145 12.3438C232.405 11.7448 232.535 11.0612 232.535 10.293C232.535 9.4987 232.411 8.79557 232.164 8.18359C231.917 7.57161 231.559 7.05729 231.09 6.64062C230.634 6.22396 230.074 5.91146 229.41 5.70312C228.746 5.48177 228.004 5.36458 227.184 5.35156H222.887V15.1172Z" fill="black"/>
<path d="M241.402 19.2383C241.402 17.7148 241.624 16.2956 242.066 14.9805C242.522 13.6654 243.167 12.526 244 11.5625C244.846 10.599 245.875 9.84375 247.086 9.29688C248.297 8.75 249.671 8.47656 251.207 8.47656C252.757 8.47656 254.137 8.75 255.348 9.29688C256.572 9.84375 257.6 10.599 258.434 11.5625C259.28 12.526 259.924 13.6654 260.367 14.9805C260.81 16.2956 261.031 17.7148 261.031 19.2383V19.6484C261.031 21.1849 260.81 22.6107 260.367 23.9258C259.924 25.2409 259.28 26.3802 258.434 27.3438C257.6 28.2943 256.578 29.043 255.367 29.5898C254.156 30.1367 252.783 30.4102 251.246 30.4102C249.697 30.4102 248.31 30.1367 247.086 29.5898C245.875 29.043 244.846 28.2943 244 27.3438C243.167 26.3802 242.522 25.2409 242.066 23.9258C241.624 22.6107 241.402 21.1849 241.402 19.6484V19.2383ZM246.07 19.6484C246.07 20.612 246.168 21.5169 246.363 22.3633C246.572 23.2096 246.884 23.9583 247.301 24.6094C247.73 25.2474 248.271 25.7552 248.922 26.1328C249.573 26.4974 250.348 26.6797 251.246 26.6797C252.118 26.6797 252.874 26.4974 253.512 26.1328C254.163 25.7552 254.697 25.2474 255.113 24.6094C255.543 23.9583 255.855 23.2096 256.051 22.3633C256.259 21.5169 256.363 20.612 256.363 19.6484V19.2383C256.363 18.3008 256.259 17.4089 256.051 16.5625C255.855 15.7161 255.543 14.974 255.113 14.3359C254.697 13.6979 254.163 13.1901 253.512 12.8125C252.874 12.4349 252.105 12.2461 251.207 12.2461C250.322 12.2461 249.553 12.4349 248.902 12.8125C248.251 13.1901 247.717 13.6979 247.301 14.3359C246.884 14.974 246.572 15.7161 246.363 16.5625C246.168 17.4089 246.07 18.3008 246.07 19.2383V19.6484Z" fill="black"/>
<path d="M284.859 19.668C284.859 21.2305 284.677 22.6693 284.312 23.9844C283.961 25.2865 283.434 26.4128 282.73 27.3633C282.027 28.3138 281.161 29.056 280.133 29.5898C279.104 30.1237 277.919 30.3906 276.578 30.3906C275.289 30.3906 274.169 30.1628 273.219 29.707C272.281 29.2513 271.474 28.5938 270.797 27.7344L270.582 30H266.344V0H271.012V10.8789C271.676 10.1107 272.457 9.51823 273.355 9.10156C274.254 8.6849 275.315 8.47656 276.539 8.47656C277.893 8.47656 279.085 8.74349 280.113 9.27734C281.155 9.79818 282.027 10.5339 282.73 11.4844C283.434 12.4349 283.961 13.5742 284.312 14.9023C284.677 16.2174 284.859 17.6693 284.859 19.2578V19.668ZM280.191 19.2578C280.191 18.3203 280.107 17.4349 279.938 16.6016C279.781 15.7552 279.514 15.013 279.137 14.375C278.772 13.737 278.277 13.2357 277.652 12.8711C277.027 12.4935 276.259 12.3047 275.348 12.3047C274.241 12.3047 273.336 12.5586 272.633 13.0664C271.93 13.5742 271.389 14.2383 271.012 15.0586V23.7891C271.389 24.6094 271.93 25.2799 272.633 25.8008C273.349 26.3216 274.267 26.582 275.387 26.582C276.272 26.582 277.021 26.4062 277.633 26.0547C278.245 25.6901 278.74 25.1953 279.117 24.5703C279.495 23.9453 279.768 23.2161 279.938 22.3828C280.107 21.5365 280.191 20.6315 280.191 19.668V19.2578Z" fill="black"/>
<path d="M289.449 19.2383C289.449 17.7148 289.671 16.2956 290.113 14.9805C290.569 13.6654 291.214 12.526 292.047 11.5625C292.893 10.599 293.922 9.84375 295.133 9.29688C296.344 8.75 297.717 8.47656 299.254 8.47656C300.803 8.47656 302.184 8.75 303.395 9.29688C304.618 9.84375 305.647 10.599 306.48 11.5625C307.327 12.526 307.971 13.6654 308.414 14.9805C308.857 16.2956 309.078 17.7148 309.078 19.2383V19.6484C309.078 21.1849 308.857 22.6107 308.414 23.9258C307.971 25.2409 307.327 26.3802 306.48 27.3438C305.647 28.2943 304.625 29.043 303.414 29.5898C302.203 30.1367 300.829 30.4102 299.293 30.4102C297.743 30.4102 296.357 30.1367 295.133 29.5898C293.922 29.043 292.893 28.2943 292.047 27.3438C291.214 26.3802 290.569 25.2409 290.113 23.9258C289.671 22.6107 289.449 21.1849 289.449 19.6484V19.2383ZM294.117 19.6484C294.117 20.612 294.215 21.5169 294.41 22.3633C294.618 23.2096 294.931 23.9583 295.348 24.6094C295.777 25.2474 296.318 25.7552 296.969 26.1328C297.62 26.4974 298.395 26.6797 299.293 26.6797C300.165 26.6797 300.921 26.4974 301.559 26.1328C302.21 25.7552 302.743 25.2474 303.16 24.6094C303.59 23.9583 303.902 23.2096 304.098 22.3633C304.306 21.5169 304.41 20.612 304.41 19.6484V19.2383C304.41 18.3008 304.306 17.4089 304.098 16.5625C303.902 15.7161 303.59 14.974 303.16 14.3359C302.743 13.6979 302.21 13.1901 301.559 12.8125C300.921 12.4349 300.152 12.2461 299.254 12.2461C298.368 12.2461 297.6 12.4349 296.949 12.8125C296.298 13.1901 295.764 13.6979 295.348 14.3359C294.931 14.974 294.618 15.7161 294.41 16.5625C294.215 17.4089 294.117 18.3008 294.117 19.2383V19.6484Z" fill="black"/>
<path d="M323.688 3.75V8.86719H331.676V12.3438H323.688V22.4805C323.688 23.2747 323.779 23.9323 323.961 24.4531C324.156 24.974 324.423 25.3906 324.762 25.7031C325.1 26.0156 325.497 26.237 325.953 26.3672C326.409 26.4844 326.91 26.543 327.457 26.543C327.861 26.543 328.277 26.5234 328.707 26.4844C329.15 26.4323 329.573 26.3802 329.977 26.3281C330.393 26.263 330.771 26.1979 331.109 26.1328C331.461 26.0547 331.754 25.9831 331.988 25.918L332.516 29.1406C332.177 29.3359 331.767 29.5182 331.285 29.6875C330.816 29.8438 330.302 29.974 329.742 30.0781C329.182 30.1823 328.596 30.2604 327.984 30.3125C327.385 30.3776 326.793 30.4102 326.207 30.4102C325.152 30.4102 324.182 30.2669 323.297 29.9805C322.424 29.681 321.669 29.2253 321.031 28.6133C320.406 27.9883 319.911 27.194 319.547 26.2305C319.195 25.2539 319.02 24.0885 319.02 22.7344V12.3438H313.863V8.86719H319.02V3.75H323.688Z" fill="black"/>
<path d="M337.496 19.2383C337.496 17.7148 337.717 16.2956 338.16 14.9805C338.616 13.6654 339.26 12.526 340.094 11.5625C340.94 10.599 341.969 9.84375 343.18 9.29688C344.391 8.75 345.764 8.47656 347.301 8.47656C348.85 8.47656 350.23 8.75 351.441 9.29688C352.665 9.84375 353.694 10.599 354.527 11.5625C355.374 12.526 356.018 13.6654 356.461 14.9805C356.904 16.2956 357.125 17.7148 357.125 19.2383V19.6484C357.125 21.1849 356.904 22.6107 356.461 23.9258C356.018 25.2409 355.374 26.3802 354.527 27.3438C353.694 28.2943 352.672 29.043 351.461 29.5898C350.25 30.1367 348.876 30.4102 347.34 30.4102C345.79 30.4102 344.404 30.1367 343.18 29.5898C341.969 29.043 340.94 28.2943 340.094 27.3438C339.26 26.3802 338.616 25.2409 338.16 23.9258C337.717 22.6107 337.496 21.1849 337.496 19.6484V19.2383ZM342.164 19.6484C342.164 20.612 342.262 21.5169 342.457 22.3633C342.665 23.2096 342.978 23.9583 343.395 24.6094C343.824 25.2474 344.365 25.7552 345.016 26.1328C345.667 26.4974 346.441 26.6797 347.34 26.6797C348.212 26.6797 348.967 26.4974 349.605 26.1328C350.257 25.7552 350.79 25.2474 351.207 24.6094C351.637 23.9583 351.949 23.2096 352.145 22.3633C352.353 21.5169 352.457 20.612 352.457 19.6484V19.2383C352.457 18.3008 352.353 17.4089 352.145 16.5625C351.949 15.7161 351.637 14.974 351.207 14.3359C350.79 13.6979 350.257 13.1901 349.605 12.8125C348.967 12.4349 348.199 12.2461 347.301 12.2461C346.415 12.2461 345.647 12.4349 344.996 12.8125C344.345 13.1901 343.811 13.6979 343.395 14.3359C342.978 14.974 342.665 15.7161 342.457 16.5625C342.262 17.4089 342.164 18.3008 342.164 19.2383V19.6484Z" fill="black"/>
<path d="M391.832 1.5625L395.367 13.8477L399.273 1.5625H405.094V30H400.68V20.2344L400.953 7.77344L396.578 21.4062H394.117L390.152 8.24219L390.426 20.2344V30H386.012V1.5625H391.832Z" fill="black"/>
<path d="M409.566 19.2383C409.566 17.7148 409.788 16.2956 410.23 14.9805C410.686 13.6654 411.331 12.526 412.164 11.5625C413.01 10.599 414.039 9.84375 415.25 9.29688C416.461 8.75 417.835 8.47656 419.371 8.47656C420.921 8.47656 422.301 8.75 423.512 9.29688C424.736 9.84375 425.764 10.599 426.598 11.5625C427.444 12.526 428.089 13.6654 428.531 14.9805C428.974 16.2956 429.195 17.7148 429.195 19.2383V19.6484C429.195 21.1849 428.974 22.6107 428.531 23.9258C428.089 25.2409 427.444 26.3802 426.598 27.3438C425.764 28.2943 424.742 29.043 423.531 29.5898C422.32 30.1367 420.947 30.4102 419.41 30.4102C417.861 30.4102 416.474 30.1367 415.25 29.5898C414.039 29.043 413.01 28.2943 412.164 27.3438C411.331 26.3802 410.686 25.2409 410.23 23.9258C409.788 22.6107 409.566 21.1849 409.566 19.6484V19.2383ZM414.234 19.6484C414.234 20.612 414.332 21.5169 414.527 22.3633C414.736 23.2096 415.048 23.9583 415.465 24.6094C415.895 25.2474 416.435 25.7552 417.086 26.1328C417.737 26.4974 418.512 26.6797 419.41 26.6797C420.283 26.6797 421.038 26.4974 421.676 26.1328C422.327 25.7552 422.861 25.2474 423.277 24.6094C423.707 23.9583 424.02 23.2096 424.215 22.3633C424.423 21.5169 424.527 20.612 424.527 19.6484V19.2383C424.527 18.3008 424.423 17.4089 424.215 16.5625C424.02 15.7161 423.707 14.974 423.277 14.3359C422.861 13.6979 422.327 13.1901 421.676 12.8125C421.038 12.4349 420.27 12.2461 419.371 12.2461C418.486 12.2461 417.717 12.4349 417.066 12.8125C416.415 13.1901 415.882 13.6979 415.465 14.3359C415.048 14.974 414.736 15.7161 414.527 16.5625C414.332 17.4089 414.234 18.3008 414.234 19.2383V19.6484Z" fill="black"/>
<path d="M438.668 8.86719L438.961 11.7969C439.729 10.7422 440.654 9.92839 441.734 9.35547C442.828 8.76953 444.039 8.47656 445.367 8.47656C446.448 8.47656 447.431 8.63281 448.316 8.94531C449.215 9.25781 449.983 9.74609 450.621 10.4102C451.272 11.0742 451.773 11.9336 452.125 12.9883C452.49 14.043 452.672 15.3125 452.672 16.7969V30H448.004V16.875C448.004 16.0026 447.9 15.2734 447.691 14.6875C447.496 14.1016 447.21 13.6328 446.832 13.2812C446.467 12.9297 446.018 12.6823 445.484 12.5391C444.951 12.3828 444.345 12.3047 443.668 12.3047C442.639 12.3047 441.741 12.5326 440.973 12.9883C440.217 13.444 439.605 14.0625 439.137 14.8438V30H434.449V8.86719H438.668Z" fill="black"/>
<path d="M457.613 19.2383C457.613 17.7148 457.835 16.2956 458.277 14.9805C458.733 13.6654 459.378 12.526 460.211 11.5625C461.057 10.599 462.086 9.84375 463.297 9.29688C464.508 8.75 465.882 8.47656 467.418 8.47656C468.967 8.47656 470.348 8.75 471.559 9.29688C472.783 9.84375 473.811 10.599 474.645 11.5625C475.491 12.526 476.135 13.6654 476.578 14.9805C477.021 16.2956 477.242 17.7148 477.242 19.2383V19.6484C477.242 21.1849 477.021 22.6107 476.578 23.9258C476.135 25.2409 475.491 26.3802 474.645 27.3438C473.811 28.2943 472.789 29.043 471.578 29.5898C470.367 30.1367 468.993 30.4102 467.457 30.4102C465.908 30.4102 464.521 30.1367 463.297 29.5898C462.086 29.043 461.057 28.2943 460.211 27.3438C459.378 26.3802 458.733 25.2409 458.277 23.9258C457.835 22.6107 457.613 21.1849 457.613 19.6484V19.2383ZM462.281 19.6484C462.281 20.612 462.379 21.5169 462.574 22.3633C462.783 23.2096 463.095 23.9583 463.512 24.6094C463.941 25.2474 464.482 25.7552 465.133 26.1328C465.784 26.4974 466.559 26.6797 467.457 26.6797C468.329 26.6797 469.085 26.4974 469.723 26.1328C470.374 25.7552 470.908 25.2474 471.324 24.6094C471.754 23.9583 472.066 23.2096 472.262 22.3633C472.47 21.5169 472.574 20.612 472.574 19.6484V19.2383C472.574 18.3008 472.47 17.4089 472.262 16.5625C472.066 15.7161 471.754 14.974 471.324 14.3359C470.908 13.6979 470.374 13.1901 469.723 12.8125C469.085 12.4349 468.316 12.2461 467.418 12.2461C466.533 12.2461 465.764 12.4349 465.113 12.8125C464.462 13.1901 463.928 13.6979 463.512 14.3359C463.095 14.974 462.783 15.7161 462.574 16.5625C462.379 17.4089 462.281 18.3008 462.281 19.2383V19.6484Z" fill="black"/>
<path d="M0.445312 82V67.7812H4.98633C5.66992 67.7878 6.30794 67.8659 6.90039 68.0156C7.49935 68.1654 8.02018 68.3965 8.46289 68.709C8.91211 69.0215 9.26367 69.4219 9.51758 69.9102C9.77148 70.3919 9.89518 70.9648 9.88867 71.6289C9.88216 72.332 9.68685 72.9342 9.30273 73.4355C8.91862 73.9303 8.40104 74.3145 7.75 74.5879C8.14714 74.6986 8.4987 74.8581 8.80469 75.0664C9.11719 75.2682 9.3776 75.5124 9.58594 75.7988C9.79427 76.0853 9.95378 76.4043 10.0645 76.7559C10.1751 77.1009 10.2305 77.4688 10.2305 77.8594C10.2305 78.5365 10.1068 79.1322 9.85938 79.6465C9.61198 80.1608 9.26693 80.5905 8.82422 80.9355C8.38802 81.2806 7.86719 81.5443 7.26172 81.7266C6.66276 81.9023 6.01497 81.9935 5.31836 82H0.445312ZM2.79883 75.5547V80.0859H5.35742C5.72852 80.0794 6.06706 80.0241 6.37305 79.9199C6.67904 79.8092 6.94271 79.6595 7.16406 79.4707C7.38542 79.2819 7.55794 79.0508 7.68164 78.7773C7.81185 78.5039 7.87695 78.1979 7.87695 77.8594C7.87695 77.5013 7.82161 77.1823 7.71094 76.9023C7.60026 76.6159 7.44076 76.375 7.23242 76.1797C7.02409 75.9844 6.77018 75.8346 6.4707 75.7305C6.17122 75.6198 5.83594 75.5612 5.46484 75.5547H2.79883ZM2.79883 73.7676H5.04492C5.39648 73.7611 5.72201 73.7155 6.02148 73.6309C6.32747 73.5397 6.59115 73.4095 6.8125 73.2402C7.03385 73.0645 7.20964 72.8529 7.33984 72.6055C7.47005 72.3516 7.53516 72.0618 7.53516 71.7363C7.53516 71.3783 7.47331 71.0723 7.34961 70.8184C7.22591 70.5645 7.05013 70.3561 6.82227 70.1934C6.60091 70.0306 6.33724 69.9134 6.03125 69.8418C5.72526 69.7637 5.38997 69.7214 5.02539 69.7148H2.79883V73.7676Z" fill="black"/>
<path d="M12.0957 76.6191C12.0957 75.8574 12.2064 75.1478 12.4277 74.4902C12.6556 73.8327 12.9779 73.263 13.3945 72.7812C13.8177 72.2995 14.332 71.9219 14.9375 71.6484C15.543 71.375 16.2298 71.2383 16.998 71.2383C17.7728 71.2383 18.4629 71.375 19.0684 71.6484C19.6803 71.9219 20.1947 72.2995 20.6113 72.7812C21.0345 73.263 21.3568 73.8327 21.5781 74.4902C21.7995 75.1478 21.9102 75.8574 21.9102 76.6191V76.8242C21.9102 77.5924 21.7995 78.3053 21.5781 78.9629C21.3568 79.6204 21.0345 80.1901 20.6113 80.6719C20.1947 81.1471 19.6836 81.5215 19.0781 81.7949C18.4727 82.0684 17.7858 82.2051 17.0176 82.2051C16.2428 82.2051 15.5495 82.0684 14.9375 81.7949C14.332 81.5215 13.8177 81.1471 13.3945 80.6719C12.9779 80.1901 12.6556 79.6204 12.4277 78.9629C12.2064 78.3053 12.0957 77.5924 12.0957 76.8242V76.6191ZM14.4297 76.8242C14.4297 77.306 14.4785 77.7585 14.5762 78.1816C14.6803 78.6048 14.8366 78.9792 15.0449 79.3047C15.2598 79.6237 15.5299 79.8776 15.8555 80.0664C16.181 80.2487 16.5684 80.3398 17.0176 80.3398C17.4538 80.3398 17.8314 80.2487 18.1504 80.0664C18.4759 79.8776 18.7428 79.6237 18.9512 79.3047C19.166 78.9792 19.3223 78.6048 19.4199 78.1816C19.5241 77.7585 19.5762 77.306 19.5762 76.8242V76.6191C19.5762 76.1504 19.5241 75.7044 19.4199 75.2812C19.3223 74.8581 19.166 74.487 18.9512 74.168C18.7428 73.849 18.4759 73.5951 18.1504 73.4062C17.8314 73.2174 17.4473 73.123 16.998 73.123C16.5553 73.123 16.1712 73.2174 15.8457 73.4062C15.5202 73.5951 15.2533 73.849 15.0449 74.168C14.8366 74.487 14.6803 74.8581 14.5762 75.2812C14.4785 75.7044 14.4297 76.1504 14.4297 76.6191V76.8242Z" fill="black"/>
<path d="M24.2246 76.6387C24.2246 75.8379 24.3223 75.1055 24.5176 74.4414C24.7129 73.7773 24.9928 73.2077 25.3574 72.7324C25.722 72.2572 26.1615 71.8893 26.6758 71.6289C27.1966 71.3685 27.7793 71.2383 28.4238 71.2383C29.0033 71.2383 29.5143 71.3392 29.957 71.541C30.3997 71.7363 30.7871 72.0195 31.1191 72.3906V67H33.4629V82H31.3438L31.2266 80.9258C30.8945 81.3359 30.4941 81.6517 30.0254 81.873C29.5632 82.0879 29.0228 82.1953 28.4043 82.1953C27.7663 82.1953 27.1901 82.0618 26.6758 81.7949C26.1615 81.5215 25.722 81.1471 25.3574 80.6719C24.9993 80.1966 24.7194 79.6335 24.5176 78.9824C24.3223 78.3249 24.2246 77.612 24.2246 76.8438V76.6387ZM26.5586 76.8438C26.5586 77.319 26.6042 77.765 26.6953 78.1816C26.7865 78.5983 26.9297 78.9629 27.125 79.2754C27.3268 79.5879 27.5807 79.8353 27.8867 80.0176C28.1992 80.1934 28.5703 80.2812 29 80.2812C29.5339 80.2812 29.9701 80.1673 30.3086 79.9395C30.6471 79.7051 30.9173 79.3926 31.1191 79.002V74.4121C30.9173 74.028 30.6439 73.722 30.2988 73.4941C29.9603 73.2663 29.5339 73.1523 29.0195 73.1523C28.5833 73.1523 28.209 73.2435 27.8965 73.4258C27.5905 73.6081 27.3366 73.8587 27.1348 74.1777C26.9395 74.4967 26.793 74.8678 26.6953 75.291C26.6042 75.7142 26.5586 76.1634 26.5586 76.6387V76.8438Z" fill="black"/>
<path d="M40.7383 77.7715L41.1387 79.041L44.1074 71.4336H46.6953L41.3438 83.6016C41.2266 83.8685 41.0736 84.1549 40.8848 84.4609C40.696 84.7734 40.4616 85.0632 40.1816 85.3301C39.9082 85.597 39.5794 85.8184 39.1953 85.9941C38.8112 86.1764 38.362 86.2676 37.8477 86.2676C37.6328 86.2676 37.4147 86.248 37.1934 86.209C36.9785 86.1764 36.7865 86.1374 36.6172 86.0918L36.9492 84.2754C36.9948 84.2754 37.0566 84.2754 37.1348 84.2754C37.2129 84.2819 37.2943 84.2884 37.3789 84.2949C37.4635 84.3014 37.5417 84.3047 37.6133 84.3047C37.6914 84.3112 37.7533 84.3145 37.7988 84.3145C38.0267 84.3145 38.2285 84.2461 38.4043 84.1094C38.5866 83.9792 38.7461 83.8262 38.8828 83.6504C39.0195 83.4811 39.1302 83.3118 39.2148 83.1426C39.306 82.9798 39.3711 82.8691 39.4102 82.8105L40.1035 81.502L35.6113 71.4336H38.1895L40.7383 77.7715Z" fill="black"/>
<path d="M70.582 69.7148H66.2168V82H63.8828V69.7148H59.5469V67.7812H70.582V69.7148Z" fill="black"/>
<path d="M77.5059 82.1953C76.7246 82.1953 76.0117 82.0651 75.3672 81.8047C74.7227 81.5443 74.1693 81.1862 73.707 80.7305C73.2513 80.2747 72.8965 79.7376 72.6426 79.1191C72.3887 78.4941 72.2617 77.8203 72.2617 77.0977V76.6973C72.2617 75.8574 72.3952 75.1022 72.6621 74.4316C72.9355 73.7611 73.2969 73.1882 73.7461 72.7129C74.2018 72.2376 74.7292 71.873 75.3281 71.6191C75.9336 71.3652 76.5684 71.2383 77.2324 71.2383C78.0007 71.2383 78.6777 71.3685 79.2637 71.6289C79.8496 71.8828 80.3379 72.2441 80.7285 72.7129C81.1257 73.1751 81.4251 73.7253 81.627 74.3633C81.8288 75.0013 81.9297 75.7012 81.9297 76.4629V77.4492H74.6055C74.6445 77.8594 74.7454 78.2402 74.9082 78.5918C75.071 78.9434 75.2826 79.2493 75.543 79.5098C75.8099 79.7637 76.1191 79.9655 76.4707 80.1152C76.8288 80.2585 77.2194 80.3301 77.6426 80.3301C78.235 80.3301 78.7786 80.2129 79.2734 79.9785C79.7747 79.7441 80.1816 79.4219 80.4941 79.0117L81.7637 80.2031C81.5944 80.457 81.3763 80.7044 81.1094 80.9453C80.8424 81.1797 80.5299 81.3913 80.1719 81.5801C79.8138 81.7624 79.4102 81.9089 78.9609 82.0195C78.5182 82.1367 78.0332 82.1953 77.5059 82.1953ZM77.2227 73.123C76.8971 73.123 76.5944 73.1816 76.3145 73.2988C76.0345 73.416 75.7839 73.5885 75.5625 73.8164C75.3411 74.0378 75.1523 74.3112 74.9961 74.6367C74.8464 74.9557 74.7389 75.3203 74.6738 75.7305H79.625V75.5547C79.6055 75.2422 79.5436 74.9427 79.4395 74.6562C79.3418 74.3633 79.1953 74.1029 79 73.875C78.8047 73.6471 78.5573 73.4648 78.2578 73.3281C77.9648 73.1914 77.6198 73.123 77.2227 73.123Z" fill="black"/>
<path d="M89.2148 75.0078L91.7344 71.4336H94.332L90.6016 76.6387L94.4492 82H91.8613L89.2441 78.2988L86.6367 82H84.0293L87.877 76.6387L84.1465 71.4336H86.7344L89.2148 75.0078Z" fill="black"/>
<path d="M101.285 68.875V71.4336H105.279V73.1719H101.285V78.2402C101.285 78.6374 101.331 78.9661 101.422 79.2266C101.52 79.487 101.653 79.6953 101.822 79.8516C101.992 80.0078 102.19 80.1185 102.418 80.1836C102.646 80.2422 102.896 80.2715 103.17 80.2715C103.372 80.2715 103.58 80.2617 103.795 80.2422C104.016 80.2161 104.228 80.1901 104.43 80.1641C104.638 80.1315 104.827 80.099 104.996 80.0664C105.172 80.0273 105.318 79.9915 105.436 79.959L105.699 81.5703C105.53 81.668 105.325 81.7591 105.084 81.8438C104.85 81.9219 104.592 81.987 104.312 82.0391C104.033 82.0911 103.74 82.1302 103.434 82.1562C103.134 82.1888 102.838 82.2051 102.545 82.2051C102.018 82.2051 101.533 82.1335 101.09 81.9902C100.654 81.8405 100.276 81.6126 99.957 81.3066C99.6445 80.9941 99.3971 80.597 99.2148 80.1152C99.0391 79.627 98.9512 79.0443 98.9512 78.3672V73.1719H96.373V71.4336H98.9512V68.875H101.285Z" fill="black"/>
<path d="M111.842 80.6035C111.842 80.3757 111.878 80.1608 111.949 79.959C112.027 79.7572 112.138 79.5846 112.281 79.4414C112.424 79.2917 112.6 79.1745 112.809 79.0898C113.023 79.0052 113.268 78.9629 113.541 78.9629C113.814 78.9629 114.055 79.0052 114.264 79.0898C114.479 79.1745 114.658 79.2917 114.801 79.4414C114.951 79.5846 115.061 79.7572 115.133 79.959C115.211 80.1608 115.25 80.3757 115.25 80.6035C115.25 80.8314 115.211 81.043 115.133 81.2383C115.061 81.4271 114.951 81.5931 114.801 81.7363C114.658 81.8796 114.479 81.9902 114.264 82.0684C114.055 82.153 113.814 82.1953 113.541 82.1953C113.268 82.1953 113.023 82.153 112.809 82.0684C112.6 81.9902 112.424 81.8796 112.281 81.7363C112.138 81.5931 112.027 81.4271 111.949 81.2383C111.878 81.043 111.842 80.8314 111.842 80.6035ZM111.842 72.293C111.842 72.0651 111.878 71.8503 111.949 71.6484C112.027 71.4466 112.138 71.2741 112.281 71.1309C112.424 70.9811 112.6 70.8639 112.809 70.7793C113.023 70.6947 113.268 70.6523 113.541 70.6523C113.814 70.6523 114.055 70.6947 114.264 70.7793C114.479 70.8639 114.658 70.9811 114.801 71.1309C114.951 71.2741 115.061 71.4466 115.133 71.6484C115.211 71.8503 115.25 72.0651 115.25 72.293C115.25 72.5208 115.211 72.7324 115.133 72.9277C115.061 73.1165 114.951 73.2826 114.801 73.4258C114.658 73.569 114.479 73.6829 114.264 73.7676C114.055 73.8457 113.814 73.8848 113.541 73.8848C113.268 73.8848 113.023 73.8457 112.809 73.7676C112.6 73.6829 112.424 73.569 112.281 73.4258C112.138 73.2826 112.027 73.1165 111.949 72.9277C111.878 72.7324 111.842 72.5208 111.842 72.293Z" fill="black"/>
<path d="M139.967 78.3379C139.967 77.9993 139.895 77.7031 139.752 77.4492C139.615 77.1888 139.417 76.9609 139.156 76.7656C138.902 76.5703 138.596 76.401 138.238 76.2578C137.887 76.1081 137.503 75.9714 137.086 75.8477C136.526 75.6849 135.973 75.4831 135.426 75.2422C134.885 75.0013 134.4 74.7083 133.971 74.3633C133.548 74.0117 133.202 73.6048 132.936 73.1426C132.675 72.6738 132.545 72.1335 132.545 71.5215C132.545 70.9095 132.675 70.3626 132.936 69.8809C133.202 69.3926 133.557 68.9792 134 68.6406C134.443 68.3021 134.957 68.0417 135.543 67.8594C136.129 67.6771 136.741 67.5859 137.379 67.5859C138.062 67.5859 138.701 67.6934 139.293 67.9082C139.892 68.1165 140.413 68.4128 140.855 68.7969C141.305 69.1745 141.66 69.6302 141.92 70.1641C142.18 70.6914 142.314 71.2773 142.32 71.9219H139.977C139.944 71.5638 139.866 71.2383 139.742 70.9453C139.625 70.6458 139.456 70.3887 139.234 70.1738C139.02 69.959 138.756 69.793 138.443 69.6758C138.131 69.5586 137.77 69.5 137.359 69.5C137.008 69.5 136.682 69.5456 136.383 69.6367C136.083 69.7279 135.823 69.8613 135.602 70.0371C135.387 70.2129 135.217 70.4245 135.094 70.6719C134.97 70.9193 134.908 71.1992 134.908 71.5117C134.908 71.8438 134.993 72.1335 135.162 72.3809C135.331 72.6217 135.553 72.8333 135.826 73.0156C136.1 73.1979 136.412 73.3574 136.764 73.4941C137.122 73.6243 137.493 73.7448 137.877 73.8555C138.469 74.0312 139.036 74.2493 139.576 74.5098C140.117 74.7637 140.592 75.0729 141.002 75.4375C141.412 75.7956 141.738 76.2122 141.979 76.6875C142.219 77.1628 142.34 77.7064 142.34 78.3184C142.34 78.9499 142.206 79.5065 141.939 79.9883C141.673 80.4701 141.314 80.8737 140.865 81.1992C140.416 81.5247 139.895 81.7721 139.303 81.9414C138.71 82.1042 138.092 82.1855 137.447 82.1855C137.011 82.1855 136.578 82.1432 136.148 82.0586C135.719 81.974 135.305 81.847 134.908 81.6777C134.518 81.5085 134.153 81.3001 133.814 81.0527C133.476 80.7988 133.18 80.5091 132.926 80.1836C132.678 79.8516 132.483 79.4837 132.34 79.0801C132.197 78.6699 132.122 78.2207 132.115 77.7324H134.469C134.501 78.1621 134.596 78.5365 134.752 78.8555C134.908 79.1745 135.117 79.4414 135.377 79.6562C135.637 79.8646 135.94 80.0241 136.285 80.1348C136.637 80.2389 137.024 80.291 137.447 80.291C137.799 80.291 138.128 80.2487 138.434 80.1641C138.74 80.0794 139.007 79.9557 139.234 79.793C139.462 79.6237 139.641 79.4186 139.771 79.1777C139.902 78.9303 139.967 78.6504 139.967 78.3379Z" fill="black"/>
<path d="M149.332 68.875V71.4336H153.326V73.1719H149.332V78.2402C149.332 78.6374 149.378 78.9661 149.469 79.2266C149.566 79.487 149.7 79.6953 149.869 79.8516C150.038 80.0078 150.237 80.1185 150.465 80.1836C150.693 80.2422 150.943 80.2715 151.217 80.2715C151.419 80.2715 151.627 80.2617 151.842 80.2422C152.063 80.2161 152.275 80.1901 152.477 80.1641C152.685 80.1315 152.874 80.099 153.043 80.0664C153.219 80.0273 153.365 79.9915 153.482 79.959L153.746 81.5703C153.577 81.668 153.372 81.7591 153.131 81.8438C152.896 81.9219 152.639 81.987 152.359 82.0391C152.079 82.0911 151.786 82.1302 151.48 82.1562C151.181 82.1888 150.885 82.2051 150.592 82.2051C150.064 82.2051 149.579 82.1335 149.137 81.9902C148.701 81.8405 148.323 81.6126 148.004 81.3066C147.691 80.9941 147.444 80.597 147.262 80.1152C147.086 79.627 146.998 79.0443 146.998 78.3672V73.1719H144.42V71.4336H146.998V68.875H149.332Z" fill="black"/>
<path d="M157.174 71.4336H162.809V80.0664H165.943V82H157.174V80.0664H160.455V73.377H157.174V71.4336ZM160.26 68.6992C160.26 68.3346 160.377 68.0352 160.611 67.8008C160.846 67.5599 161.174 67.4395 161.598 67.4395C162.027 67.4395 162.359 67.5599 162.594 67.8008C162.835 68.0352 162.955 68.3346 162.955 68.6992C162.955 69.0638 162.835 69.3665 162.594 69.6074C162.359 69.8418 162.027 69.959 161.598 69.959C161.174 69.959 160.846 69.8418 160.611 69.6074C160.377 69.3665 160.26 69.0638 160.26 68.6992Z" fill="black"/>
<path d="M169.107 67H174.82V80.0664H178.043V82H169.107V80.0664H172.467V68.9434H169.107V67Z" fill="black"/>
<path d="M181.119 67H186.832V80.0664H190.055V82H181.119V80.0664H184.479V68.9434H181.119V67Z" fill="black"/>
<path d="M209.42 76.4531H207.037V82H204.693V67.7812H209.186C209.915 67.7878 210.585 67.8822 211.197 68.0645C211.816 68.2402 212.35 68.5072 212.799 68.8652C213.248 69.2168 213.596 69.6595 213.844 70.1934C214.091 70.7272 214.215 71.3522 214.215 72.0684C214.215 72.5501 214.15 72.9896 214.02 73.3867C213.896 73.7773 213.72 74.1322 213.492 74.4512C213.264 74.7702 212.991 75.0501 212.672 75.291C212.353 75.5319 212.001 75.737 211.617 75.9062L214.625 81.8828V82H212.125L209.42 76.4531ZM207.037 74.5586H209.195C209.586 74.5586 209.944 74.5033 210.27 74.3926C210.595 74.2819 210.875 74.1257 211.109 73.9238C211.35 73.7155 211.536 73.4648 211.666 73.1719C211.796 72.8724 211.861 72.5306 211.861 72.1465C211.861 71.7493 211.799 71.3978 211.676 71.0918C211.552 70.7858 211.373 70.5286 211.139 70.3203C210.911 70.112 210.631 69.9557 210.299 69.8516C209.967 69.7409 209.596 69.6823 209.186 69.6758H207.037V74.5586Z" fill="black"/>
<path d="M216.295 76.6191C216.295 75.8574 216.406 75.1478 216.627 74.4902C216.855 73.8327 217.177 73.263 217.594 72.7812C218.017 72.2995 218.531 71.9219 219.137 71.6484C219.742 71.375 220.429 71.2383 221.197 71.2383C221.972 71.2383 222.662 71.375 223.268 71.6484C223.88 71.9219 224.394 72.2995 224.811 72.7812C225.234 73.263 225.556 73.8327 225.777 74.4902C225.999 75.1478 226.109 75.8574 226.109 76.6191V76.8242C226.109 77.5924 225.999 78.3053 225.777 78.9629C225.556 79.6204 225.234 80.1901 224.811 80.6719C224.394 81.1471 223.883 81.5215 223.277 81.7949C222.672 82.0684 221.985 82.2051 221.217 82.2051C220.442 82.2051 219.749 82.0684 219.137 81.7949C218.531 81.5215 218.017 81.1471 217.594 80.6719C217.177 80.1901 216.855 79.6204 216.627 78.9629C216.406 78.3053 216.295 77.5924 216.295 76.8242V76.6191ZM218.629 76.8242C218.629 77.306 218.678 77.7585 218.775 78.1816C218.88 78.6048 219.036 78.9792 219.244 79.3047C219.459 79.6237 219.729 79.8776 220.055 80.0664C220.38 80.2487 220.768 80.3398 221.217 80.3398C221.653 80.3398 222.031 80.2487 222.35 80.0664C222.675 79.8776 222.942 79.6237 223.15 79.3047C223.365 78.9792 223.521 78.6048 223.619 78.1816C223.723 77.7585 223.775 77.306 223.775 76.8242V76.6191C223.775 76.1504 223.723 75.7044 223.619 75.2812C223.521 74.8581 223.365 74.487 223.15 74.168C222.942 73.849 222.675 73.5951 222.35 73.4062C222.031 73.2174 221.646 73.123 221.197 73.123C220.755 73.123 220.37 73.2174 220.045 73.4062C219.719 73.5951 219.452 73.849 219.244 74.168C219.036 74.487 218.88 74.8581 218.775 75.2812C218.678 75.7044 218.629 76.1504 218.629 76.6191V76.8242Z" fill="black"/>
<path d="M238.023 76.834C238.023 77.6152 237.932 78.3346 237.75 78.9922C237.574 79.6432 237.311 80.2064 236.959 80.6816C236.607 81.1569 236.174 81.528 235.66 81.7949C235.146 82.0618 234.553 82.1953 233.883 82.1953C233.238 82.1953 232.678 82.0814 232.203 81.8535C231.734 81.6257 231.331 81.2969 230.992 80.8672L230.885 82H228.766V67H231.1V72.4395C231.432 72.0553 231.822 71.7591 232.271 71.5508C232.721 71.3424 233.251 71.2383 233.863 71.2383C234.54 71.2383 235.136 71.3717 235.65 71.6387C236.171 71.8991 236.607 72.2669 236.959 72.7422C237.311 73.2174 237.574 73.7871 237.75 74.4512C237.932 75.1087 238.023 75.8346 238.023 76.6289V76.834ZM235.689 76.6289C235.689 76.1602 235.647 75.7174 235.562 75.3008C235.484 74.8776 235.351 74.5065 235.162 74.1875C234.98 73.8685 234.732 73.6178 234.42 73.4355C234.107 73.2467 233.723 73.1523 233.268 73.1523C232.714 73.1523 232.262 73.2793 231.91 73.5332C231.559 73.7871 231.288 74.1191 231.1 74.5293V78.8945C231.288 79.3047 231.559 79.64 231.91 79.9004C232.268 80.1608 232.727 80.291 233.287 80.291C233.73 80.291 234.104 80.2031 234.41 80.0273C234.716 79.8451 234.964 79.5977 235.152 79.2852C235.341 78.9727 235.478 78.6081 235.562 78.1914C235.647 77.7682 235.689 77.3158 235.689 76.834V76.6289Z" fill="black"/>
<path d="M240.318 76.6191C240.318 75.8574 240.429 75.1478 240.65 74.4902C240.878 73.8327 241.201 73.263 241.617 72.7812C242.04 72.2995 242.555 71.9219 243.16 71.6484C243.766 71.375 244.452 71.2383 245.221 71.2383C245.995 71.2383 246.686 71.375 247.291 71.6484C247.903 71.9219 248.417 72.2995 248.834 72.7812C249.257 73.263 249.579 73.8327 249.801 74.4902C250.022 75.1478 250.133 75.8574 250.133 76.6191V76.8242C250.133 77.5924 250.022 78.3053 249.801 78.9629C249.579 79.6204 249.257 80.1901 248.834 80.6719C248.417 81.1471 247.906 81.5215 247.301 81.7949C246.695 82.0684 246.008 82.2051 245.24 82.2051C244.465 82.2051 243.772 82.0684 243.16 81.7949C242.555 81.5215 242.04 81.1471 241.617 80.6719C241.201 80.1901 240.878 79.6204 240.65 78.9629C240.429 78.3053 240.318 77.5924 240.318 76.8242V76.6191ZM242.652 76.8242C242.652 77.306 242.701 77.7585 242.799 78.1816C242.903 78.6048 243.059 78.9792 243.268 79.3047C243.482 79.6237 243.753 79.8776 244.078 80.0664C244.404 80.2487 244.791 80.3398 245.24 80.3398C245.676 80.3398 246.054 80.2487 246.373 80.0664C246.699 79.8776 246.965 79.6237 247.174 79.3047C247.389 78.9792 247.545 78.6048 247.643 78.1816C247.747 77.7585 247.799 77.306 247.799 76.8242V76.6191C247.799 76.1504 247.747 75.7044 247.643 75.2812C247.545 74.8581 247.389 74.487 247.174 74.168C246.965 73.849 246.699 73.5951 246.373 73.4062C246.054 73.2174 245.67 73.123 245.221 73.123C244.778 73.123 244.394 73.2174 244.068 73.4062C243.743 73.5951 243.476 73.849 243.268 74.168C243.059 74.487 242.903 74.8581 242.799 75.2812C242.701 75.7044 242.652 76.1504 242.652 76.6191V76.8242Z" fill="black"/>
<path d="M257.438 68.875V71.4336H261.432V73.1719H257.438V78.2402C257.438 78.6374 257.483 78.9661 257.574 79.2266C257.672 79.487 257.805 79.6953 257.975 79.8516C258.144 80.0078 258.342 80.1185 258.57 80.1836C258.798 80.2422 259.049 80.2715 259.322 80.2715C259.524 80.2715 259.732 80.2617 259.947 80.2422C260.169 80.2161 260.38 80.1901 260.582 80.1641C260.79 80.1315 260.979 80.099 261.148 80.0664C261.324 80.0273 261.471 79.9915 261.588 79.959L261.852 81.5703C261.682 81.668 261.477 81.7591 261.236 81.8438C261.002 81.9219 260.745 81.987 260.465 82.0391C260.185 82.0911 259.892 82.1302 259.586 82.1562C259.286 82.1888 258.99 82.2051 258.697 82.2051C258.17 82.2051 257.685 82.1335 257.242 81.9902C256.806 81.8405 256.428 81.6126 256.109 81.3066C255.797 80.9941 255.549 80.597 255.367 80.1152C255.191 79.627 255.104 79.0443 255.104 78.3672V73.1719H252.525V71.4336H255.104V68.875H257.438Z" fill="black"/>
<path d="M264.342 76.6191C264.342 75.8574 264.452 75.1478 264.674 74.4902C264.902 73.8327 265.224 73.263 265.641 72.7812C266.064 72.2995 266.578 71.9219 267.184 71.6484C267.789 71.375 268.476 71.2383 269.244 71.2383C270.019 71.2383 270.709 71.375 271.314 71.6484C271.926 71.9219 272.441 72.2995 272.857 72.7812C273.281 73.263 273.603 73.8327 273.824 74.4902C274.046 75.1478 274.156 75.8574 274.156 76.6191V76.8242C274.156 77.5924 274.046 78.3053 273.824 78.9629C273.603 79.6204 273.281 80.1901 272.857 80.6719C272.441 81.1471 271.93 81.5215 271.324 81.7949C270.719 82.0684 270.032 82.2051 269.264 82.2051C268.489 82.2051 267.796 82.0684 267.184 81.7949C266.578 81.5215 266.064 81.1471 265.641 80.6719C265.224 80.1901 264.902 79.6204 264.674 78.9629C264.452 78.3053 264.342 77.5924 264.342 76.8242V76.6191ZM266.676 76.8242C266.676 77.306 266.725 77.7585 266.822 78.1816C266.926 78.6048 267.083 78.9792 267.291 79.3047C267.506 79.6237 267.776 79.8776 268.102 80.0664C268.427 80.2487 268.814 80.3398 269.264 80.3398C269.7 80.3398 270.077 80.2487 270.396 80.0664C270.722 79.8776 270.989 79.6237 271.197 79.3047C271.412 78.9792 271.568 78.6048 271.666 78.1816C271.77 77.7585 271.822 77.306 271.822 76.8242V76.6191C271.822 76.1504 271.77 75.7044 271.666 75.2812C271.568 74.8581 271.412 74.487 271.197 74.168C270.989 73.849 270.722 73.5951 270.396 73.4062C270.077 73.2174 269.693 73.123 269.244 73.123C268.801 73.123 268.417 73.2174 268.092 73.4062C267.766 73.5951 267.499 73.849 267.291 74.168C267.083 74.487 266.926 74.8581 266.822 75.2812C266.725 75.7044 266.676 76.1504 266.676 76.6191V76.8242Z" fill="black"/>
<path d="M291.51 67.7812L293.277 73.9238L295.23 67.7812H298.141V82H295.934V77.1172L296.07 70.8867L293.883 77.7031H292.652L290.67 71.1211L290.807 77.1172V82H288.6V67.7812H291.51Z" fill="black"/>
<path d="M300.377 76.6191C300.377 75.8574 300.488 75.1478 300.709 74.4902C300.937 73.8327 301.259 73.263 301.676 72.7812C302.099 72.2995 302.613 71.9219 303.219 71.6484C303.824 71.375 304.511 71.2383 305.279 71.2383C306.054 71.2383 306.744 71.375 307.35 71.6484C307.962 71.9219 308.476 72.2995 308.893 72.7812C309.316 73.263 309.638 73.8327 309.859 74.4902C310.081 75.1478 310.191 75.8574 310.191 76.6191V76.8242C310.191 77.5924 310.081 78.3053 309.859 78.9629C309.638 79.6204 309.316 80.1901 308.893 80.6719C308.476 81.1471 307.965 81.5215 307.359 81.7949C306.754 82.0684 306.067 82.2051 305.299 82.2051C304.524 82.2051 303.831 82.0684 303.219 81.7949C302.613 81.5215 302.099 81.1471 301.676 80.6719C301.259 80.1901 300.937 79.6204 300.709 78.9629C300.488 78.3053 300.377 77.5924 300.377 76.8242V76.6191ZM302.711 76.8242C302.711 77.306 302.76 77.7585 302.857 78.1816C302.962 78.6048 303.118 78.9792 303.326 79.3047C303.541 79.6237 303.811 79.8776 304.137 80.0664C304.462 80.2487 304.85 80.3398 305.299 80.3398C305.735 80.3398 306.113 80.2487 306.432 80.0664C306.757 79.8776 307.024 79.6237 307.232 79.3047C307.447 78.9792 307.604 78.6048 307.701 78.1816C307.805 77.7585 307.857 77.306 307.857 76.8242V76.6191C307.857 76.1504 307.805 75.7044 307.701 75.2812C307.604 74.8581 307.447 74.487 307.232 74.168C307.024 73.849 306.757 73.5951 306.432 73.4062C306.113 73.2174 305.729 73.123 305.279 73.123C304.837 73.123 304.452 73.2174 304.127 73.4062C303.801 73.5951 303.535 73.849 303.326 74.168C303.118 74.487 302.962 74.8581 302.857 75.2812C302.76 75.7044 302.711 76.1504 302.711 76.6191V76.8242Z" fill="black"/>
<path d="M314.928 71.4336L315.074 72.8984C315.458 72.3711 315.921 71.9642 316.461 71.6777C317.008 71.3848 317.613 71.2383 318.277 71.2383C318.818 71.2383 319.309 71.3164 319.752 71.4727C320.201 71.6289 320.585 71.873 320.904 72.2051C321.23 72.5371 321.48 72.9668 321.656 73.4941C321.839 74.0215 321.93 74.6562 321.93 75.3984V82H319.596V75.4375C319.596 75.0013 319.544 74.6367 319.439 74.3438C319.342 74.0508 319.199 73.8164 319.01 73.6406C318.827 73.4648 318.603 73.3411 318.336 73.2695C318.069 73.1914 317.766 73.1523 317.428 73.1523C316.913 73.1523 316.464 73.2663 316.08 73.4941C315.702 73.722 315.396 74.0312 315.162 74.4219V82H312.818V71.4336H314.928Z" fill="black"/>
<path d="M324.4 76.6191C324.4 75.8574 324.511 75.1478 324.732 74.4902C324.96 73.8327 325.283 73.263 325.699 72.7812C326.122 72.2995 326.637 71.9219 327.242 71.6484C327.848 71.375 328.535 71.2383 329.303 71.2383C330.077 71.2383 330.768 71.375 331.373 71.6484C331.985 71.9219 332.499 72.2995 332.916 72.7812C333.339 73.263 333.661 73.8327 333.883 74.4902C334.104 75.1478 334.215 75.8574 334.215 76.6191V76.8242C334.215 77.5924 334.104 78.3053 333.883 78.9629C333.661 79.6204 333.339 80.1901 332.916 80.6719C332.499 81.1471 331.988 81.5215 331.383 81.7949C330.777 82.0684 330.09 82.2051 329.322 82.2051C328.548 82.2051 327.854 82.0684 327.242 81.7949C326.637 81.5215 326.122 81.1471 325.699 80.6719C325.283 80.1901 324.96 79.6204 324.732 78.9629C324.511 78.3053 324.4 77.5924 324.4 76.8242V76.6191ZM326.734 76.8242C326.734 77.306 326.783 77.7585 326.881 78.1816C326.985 78.6048 327.141 78.9792 327.35 79.3047C327.564 79.6237 327.835 79.8776 328.16 80.0664C328.486 80.2487 328.873 80.3398 329.322 80.3398C329.758 80.3398 330.136 80.2487 330.455 80.0664C330.781 79.8776 331.048 79.6237 331.256 79.3047C331.471 78.9792 331.627 78.6048 331.725 78.1816C331.829 77.7585 331.881 77.306 331.881 76.8242V76.6191C331.881 76.1504 331.829 75.7044 331.725 75.2812C331.627 74.8581 331.471 74.487 331.256 74.168C331.048 73.849 330.781 73.5951 330.455 73.4062C330.136 73.2174 329.752 73.123 329.303 73.123C328.86 73.123 328.476 73.2174 328.15 73.4062C327.825 73.5951 327.558 73.849 327.35 74.168C327.141 74.487 326.985 74.8581 326.881 75.2812C326.783 75.7044 326.734 76.1504 326.734 76.6191V76.8242Z" fill="black"/>
<path d="M358.141 76.834C358.141 77.6152 358.049 78.3346 357.867 78.9922C357.691 79.6432 357.428 80.2064 357.076 80.6816C356.725 81.1569 356.292 81.528 355.777 81.7949C355.263 82.0618 354.671 82.1953 354 82.1953C353.355 82.1953 352.796 82.0814 352.32 81.8535C351.852 81.6257 351.448 81.2969 351.109 80.8672L351.002 82H348.883V67H351.217V72.4395C351.549 72.0553 351.939 71.7591 352.389 71.5508C352.838 71.3424 353.368 71.2383 353.98 71.2383C354.658 71.2383 355.253 71.3717 355.768 71.6387C356.288 71.8991 356.725 72.2669 357.076 72.7422C357.428 73.2174 357.691 73.7871 357.867 74.4512C358.049 75.1087 358.141 75.8346 358.141 76.6289V76.834ZM355.807 76.6289C355.807 76.1602 355.764 75.7174 355.68 75.3008C355.602 74.8776 355.468 74.5065 355.279 74.1875C355.097 73.8685 354.85 73.6178 354.537 73.4355C354.225 73.2467 353.84 73.1523 353.385 73.1523C352.831 73.1523 352.379 73.2793 352.027 73.5332C351.676 73.7871 351.406 74.1191 351.217 74.5293V78.8945C351.406 79.3047 351.676 79.64 352.027 79.9004C352.385 80.1608 352.844 80.291 353.404 80.291C353.847 80.291 354.221 80.2031 354.527 80.0273C354.833 79.8451 355.081 79.5977 355.27 79.2852C355.458 78.9727 355.595 78.6081 355.68 78.1914C355.764 77.7682 355.807 77.3158 355.807 76.834V76.6289Z" fill="black"/>
<path d="M367.643 80.5547C367.285 81.0755 366.848 81.4824 366.334 81.7754C365.826 82.0618 365.257 82.2051 364.625 82.2051C364.078 82.2051 363.577 82.1204 363.121 81.9512C362.672 81.7819 362.285 81.515 361.959 81.1504C361.64 80.7793 361.389 80.3105 361.207 79.7441C361.031 79.1712 360.943 78.4844 360.943 77.6836V71.4336H363.277V77.7031C363.277 78.2109 363.313 78.6309 363.385 78.9629C363.463 79.2949 363.58 79.5586 363.736 79.7539C363.893 79.9492 364.088 80.0892 364.322 80.1738C364.557 80.252 364.837 80.291 365.162 80.291C365.787 80.291 366.292 80.1706 366.676 79.9297C367.06 79.6823 367.35 79.3503 367.545 78.9336V71.4336H369.889V82H367.779L367.643 80.5547Z" fill="black"/>
<path d="M377.555 68.875V71.4336H381.549V73.1719H377.555V78.2402C377.555 78.6374 377.6 78.9661 377.691 79.2266C377.789 79.487 377.923 79.6953 378.092 79.8516C378.261 80.0078 378.46 80.1185 378.688 80.1836C378.915 80.2422 379.166 80.2715 379.439 80.2715C379.641 80.2715 379.85 80.2617 380.064 80.2422C380.286 80.2161 380.497 80.1901 380.699 80.1641C380.908 80.1315 381.096 80.099 381.266 80.0664C381.441 80.0273 381.588 79.9915 381.705 79.959L381.969 81.5703C381.799 81.668 381.594 81.7591 381.354 81.8438C381.119 81.9219 380.862 81.987 380.582 82.0391C380.302 82.0911 380.009 82.1302 379.703 82.1562C379.404 82.1888 379.107 82.2051 378.814 82.2051C378.287 82.2051 377.802 82.1335 377.359 81.9902C376.923 81.8405 376.546 81.6126 376.227 81.3066C375.914 80.9941 375.667 80.597 375.484 80.1152C375.309 79.627 375.221 79.0443 375.221 78.3672V73.1719H372.643V71.4336H375.221V68.875H377.555Z" fill="black"/>
<path d="M403.785 79.1387C403.785 78.9629 403.749 78.8034 403.678 78.6602C403.606 78.5104 403.476 78.377 403.287 78.2598C403.105 78.1361 402.851 78.0221 402.525 77.918C402.206 77.8138 401.796 77.7129 401.295 77.6152C400.67 77.485 400.104 77.3288 399.596 77.1465C399.094 76.9642 398.661 76.7461 398.297 76.4922C397.939 76.2383 397.662 75.9453 397.467 75.6133C397.271 75.2747 397.174 74.8841 397.174 74.4414C397.174 74.0117 397.275 73.6048 397.477 73.2207C397.678 72.8301 397.965 72.4883 398.336 72.1953C398.714 71.9023 399.169 71.6712 399.703 71.502C400.243 71.3262 400.846 71.2383 401.51 71.2383C402.213 71.2383 402.841 71.3262 403.395 71.502C403.954 71.6777 404.426 71.9186 404.811 72.2246C405.195 72.5241 405.488 72.8789 405.689 73.2891C405.898 73.6992 406.002 74.1387 406.002 74.6074H403.668C403.668 74.3991 403.622 74.2005 403.531 74.0117C403.44 73.8164 403.303 73.6439 403.121 73.4941C402.939 73.3444 402.711 73.2272 402.438 73.1426C402.171 73.0514 401.861 73.0059 401.51 73.0059C401.158 73.0059 400.852 73.0449 400.592 73.123C400.338 73.1947 400.126 73.2923 399.957 73.416C399.788 73.5332 399.661 73.6732 399.576 73.8359C399.498 73.9987 399.459 74.168 399.459 74.3438C399.459 74.5195 399.488 74.679 399.547 74.8223C399.612 74.9655 399.729 75.0957 399.898 75.2129C400.068 75.3301 400.302 75.4375 400.602 75.5352C400.901 75.6263 401.288 75.7142 401.764 75.7988C402.428 75.916 403.023 76.0625 403.551 76.2383C404.085 76.4141 404.537 76.6289 404.908 76.8828C405.286 77.1367 405.576 77.4395 405.777 77.791C405.979 78.1361 406.08 78.543 406.08 79.0117C406.08 79.4805 405.973 79.9102 405.758 80.3008C405.543 80.6914 405.237 81.0299 404.84 81.3164C404.443 81.5964 403.964 81.8145 403.404 81.9707C402.851 82.127 402.229 82.2051 401.539 82.2051C400.771 82.2051 400.094 82.1042 399.508 81.9023C398.922 81.694 398.43 81.4238 398.033 81.0918C397.636 80.7598 397.333 80.3822 397.125 79.959C396.923 79.5358 396.822 79.1061 396.822 78.6699H399.088C399.107 78.9954 399.192 79.2721 399.342 79.5C399.492 79.7279 399.684 79.9134 399.918 80.0566C400.152 80.1934 400.413 80.2943 400.699 80.3594C400.986 80.418 401.275 80.4473 401.568 80.4473C402.291 80.4473 402.841 80.3268 403.219 80.0859C403.596 79.8385 403.785 79.5228 403.785 79.1387Z" fill="black"/>
<path d="M410.26 71.4336L410.318 72.5469C410.527 72.1367 410.807 71.8177 411.158 71.5898C411.51 71.3555 411.933 71.2383 412.428 71.2383C412.877 71.2383 413.248 71.3294 413.541 71.5117C413.84 71.6875 414.065 71.9642 414.215 72.3418C414.423 72.0033 414.69 71.7363 415.016 71.541C415.341 71.3392 415.735 71.2383 416.197 71.2383C416.542 71.2383 416.858 71.2969 417.145 71.4141C417.438 71.5247 417.685 71.7038 417.887 71.9512C418.095 72.1986 418.255 72.5143 418.365 72.8984C418.482 73.2826 418.541 73.7448 418.541 74.2852V82H416.373V74.2656C416.373 73.8424 416.282 73.5527 416.1 73.3965C415.924 73.2337 415.696 73.1523 415.416 73.1523C415.149 73.1523 414.938 73.2174 414.781 73.3477C414.625 73.4714 414.511 73.6374 414.439 73.8457V82H412.32V74.2656C412.32 73.8555 412.236 73.569 412.066 73.4062C411.904 73.237 411.679 73.1523 411.393 73.1523C411.119 73.1523 410.904 73.2109 410.748 73.3281C410.592 73.4453 410.471 73.6048 410.387 73.8066V82H408.219V71.4336H410.26Z" fill="black"/>
<path d="M427.662 82C427.597 81.8698 427.542 81.7168 427.496 81.541C427.457 81.3652 427.421 81.1764 427.389 80.9746C427.226 81.1439 427.04 81.3034 426.832 81.4531C426.63 81.5964 426.402 81.7233 426.148 81.834C425.901 81.9447 425.631 82.0326 425.338 82.0977C425.051 82.1628 424.742 82.1953 424.41 82.1953C423.85 82.1953 423.342 82.1172 422.887 81.9609C422.438 81.7982 422.05 81.5768 421.725 81.2969C421.406 81.0104 421.158 80.6751 420.982 80.291C420.807 79.9069 420.719 79.4902 420.719 79.041C420.719 77.9082 421.139 77.0423 421.979 76.4434C422.825 75.8444 424.036 75.5449 425.611 75.5449H427.32V74.8516C427.32 74.2917 427.132 73.849 426.754 73.5234C426.376 73.1914 425.842 73.0254 425.152 73.0254C424.84 73.0254 424.566 73.0645 424.332 73.1426C424.098 73.2142 423.902 73.3151 423.746 73.4453C423.59 73.5755 423.473 73.7285 423.395 73.9043C423.316 74.0801 423.277 74.2689 423.277 74.4707H420.943C420.943 74.0605 421.038 73.6634 421.227 73.2793C421.422 72.8887 421.705 72.5436 422.076 72.2441C422.447 71.9382 422.9 71.694 423.434 71.5117C423.974 71.3294 424.589 71.2383 425.279 71.2383C425.904 71.2383 426.484 71.3164 427.018 71.4727C427.551 71.6224 428.014 71.8503 428.404 72.1562C428.795 72.4557 429.101 72.8333 429.322 73.2891C429.544 73.7383 429.654 74.2656 429.654 74.8711V79.5781C429.654 80.0404 429.687 80.4635 429.752 80.8477C429.824 81.2253 429.924 81.554 430.055 81.834V82H427.662ZM424.85 80.3105C425.149 80.3105 425.429 80.2747 425.689 80.2031C425.956 80.125 426.194 80.0273 426.402 79.9102C426.617 79.7865 426.799 79.6465 426.949 79.4902C427.105 79.334 427.229 79.1745 427.32 79.0117V77.0293H425.836C424.885 77.0293 424.182 77.1823 423.727 77.4883C423.277 77.7943 423.053 78.2305 423.053 78.7969C423.053 79.0117 423.089 79.2135 423.16 79.4023C423.232 79.5846 423.339 79.7441 423.482 79.8809C423.632 80.0111 423.818 80.1152 424.039 80.1934C424.267 80.2715 424.537 80.3105 424.85 80.3105Z" fill="black"/>
<path d="M433.365 67H439.078V80.0664H442.301V82H433.365V80.0664H436.725V68.9434H433.365V67Z" fill="black"/>
<path d="M445.377 67H451.09V80.0664H454.312V82H445.377V80.0664H448.736V68.9434H445.377V67Z" fill="black"/>
<path d="M461.881 82.1953C461.1 82.1953 460.387 82.0651 459.742 81.8047C459.098 81.5443 458.544 81.1862 458.082 80.7305C457.626 80.2747 457.271 79.7376 457.018 79.1191C456.764 78.4941 456.637 77.8203 456.637 77.0977V76.6973C456.637 75.8574 456.77 75.1022 457.037 74.4316C457.311 73.7611 457.672 73.1882 458.121 72.7129C458.577 72.2376 459.104 71.873 459.703 71.6191C460.309 71.3652 460.943 71.2383 461.607 71.2383C462.376 71.2383 463.053 71.3685 463.639 71.6289C464.225 71.8828 464.713 72.2441 465.104 72.7129C465.501 73.1751 465.8 73.7253 466.002 74.3633C466.204 75.0013 466.305 75.7012 466.305 76.4629V77.4492H458.98C459.02 77.8594 459.12 78.2402 459.283 78.5918C459.446 78.9434 459.658 79.2493 459.918 79.5098C460.185 79.7637 460.494 79.9655 460.846 80.1152C461.204 80.2585 461.594 80.3301 462.018 80.3301C462.61 80.3301 463.154 80.2129 463.648 79.9785C464.15 79.7441 464.557 79.4219 464.869 79.0117L466.139 80.2031C465.969 80.457 465.751 80.7044 465.484 80.9453C465.217 81.1797 464.905 81.3913 464.547 81.5801C464.189 81.7624 463.785 81.9089 463.336 82.0195C462.893 82.1367 462.408 82.1953 461.881 82.1953ZM461.598 73.123C461.272 73.123 460.969 73.1816 460.689 73.2988C460.41 73.416 460.159 73.5885 459.938 73.8164C459.716 74.0378 459.527 74.3112 459.371 74.6367C459.221 74.9557 459.114 75.3203 459.049 75.7305H464V75.5547C463.98 75.2422 463.919 74.9427 463.814 74.6562C463.717 74.3633 463.57 74.1029 463.375 73.875C463.18 73.6471 462.932 73.4648 462.633 73.3281C462.34 73.1914 461.995 73.123 461.598 73.123Z" fill="black"/>
<path d="M476.227 71.2383C476.415 71.2383 476.604 71.2448 476.793 71.2578C476.982 71.2708 477.161 71.2904 477.33 71.3164C477.506 71.3424 477.665 71.3717 477.809 71.4043C477.952 71.4303 478.072 71.4629 478.17 71.502L477.838 73.7969C477.122 73.6341 476.415 73.5527 475.719 73.5527C474.938 73.5527 474.306 73.7155 473.824 74.041C473.349 74.3665 472.997 74.819 472.77 75.3984V82H470.436V71.4336H472.623L472.73 73.084C473.16 72.5111 473.668 72.0618 474.254 71.7363C474.846 71.4043 475.504 71.2383 476.227 71.2383Z" fill="black"/>
</svg>
