<svg width="660" height="181" viewBox="0 0 660 181" fill="none" xmlns="http://www.w3.org/2000/svg">
<rect width="132" height="181" fill="#FBE144"/>
<rect x="132" width="132" height="181" fill="#F54C2B"/>
<rect x="264" width="132" height="181" fill="#E3E0D7"/>
<rect x="528" width="132" height="181" fill="black"/>
<rect x="396" width="132" height="181" fill="#7EC1D4"/>
<path d="M28.6266 99L29.4866 95.06H26.6466V93.56H29.8066L30.4866 90.3H27.4866V88.82H30.8066L31.6466 84.88H33.2466L32.4066 88.82H36.7066L37.5466 84.88H39.1266L38.2866 88.82H41.0666V90.3H37.9666L37.2866 93.56H40.1866V95.06H36.9666L36.1066 99H34.5066L35.3666 95.06H31.0666L30.2266 99H28.6266ZM31.3866 93.56H35.6866L36.3866 90.3H32.0866L31.3866 93.56ZM43.4956 99V85H52.0156V86.38H45.1756V91.3H50.9956V92.66H45.1756V99H43.4956ZM54.1792 99V85H59.0992C60.0859 85 60.8992 85.16 61.5392 85.48C62.1926 85.7867 62.6792 86.2133 62.9992 86.76C63.3192 87.2933 63.4792 87.8933 63.4792 88.56C63.4792 89.4667 63.2326 90.18 62.7392 90.7C62.2592 91.22 61.6792 91.58 60.9992 91.78C61.5192 91.8733 61.9926 92.08 62.4192 92.4C62.8459 92.72 63.1792 93.12 63.4192 93.6C63.6726 94.08 63.7992 94.6067 63.7992 95.18C63.7992 95.8867 63.6259 96.5333 63.2792 97.12C62.9326 97.6933 62.4192 98.1533 61.7392 98.5C61.0592 98.8333 60.2326 99 59.2592 99H54.1792ZM55.8592 91.12H58.9792C59.8726 91.12 60.5592 90.9133 61.0392 90.5C61.5192 90.0733 61.7592 89.4867 61.7592 88.74C61.7592 88.0333 61.5192 87.4667 61.0392 87.04C60.5726 86.6133 59.8659 86.4 58.9192 86.4H55.8592V91.12ZM55.8592 97.6H59.0792C60.0392 97.6 60.7792 97.38 61.2992 96.94C61.8192 96.4867 62.0792 95.86 62.0792 95.06C62.0792 94.2733 61.8059 93.6467 61.2592 93.18C60.7126 92.7 59.9726 92.46 59.0392 92.46H55.8592V97.6ZM66.2105 99V85H74.8705V86.38H67.8905V91.26H74.2705V92.62H67.8905V97.62H74.8705V99H66.2105ZM78.8795 99V86.88L76.6195 87.38V86.22L79.4395 85H80.5795V99H78.8795ZM89.8747 99V96H82.7747V94.7L89.5747 85H91.5347V94.52H93.6147V96H91.5347V99H89.8747ZM84.6347 94.52H89.9547V86.86L84.6347 94.52ZM101.984 99V96H94.8841V94.7L101.684 85H103.644V94.52H105.724V96H103.644V99H101.984ZM96.7441 94.52H102.064V86.86L96.7441 94.52Z" fill="black"/>
<path d="M288.662 99L289.522 95.06H286.682V93.56H289.842L290.522 90.3H287.522V88.82H290.842L291.682 84.88H293.282L292.442 88.82H296.742L297.582 84.88H299.162L298.322 88.82H301.102V90.3H298.002L297.322 93.56H300.222V95.06H297.002L296.142 99H294.542L295.402 95.06H291.102L290.262 99H288.662ZM291.422 93.56H295.722L296.422 90.3H292.122L291.422 93.56ZM303.531 99V85H312.191V86.38H305.211V91.26H311.591V92.62H305.211V97.62H312.191V99H303.531ZM319.18 99.24C318.287 99.24 317.48 99.08 316.76 98.76C316.04 98.4267 315.46 97.9333 315.02 97.28C314.593 96.6267 314.367 95.8133 314.34 94.84H316.04C316.053 95.64 316.333 96.3333 316.88 96.92C317.427 97.4933 318.193 97.78 319.18 97.78C320.167 97.78 320.907 97.5067 321.4 96.96C321.907 96.4133 322.16 95.7533 322.16 94.98C322.16 94.3267 322 93.7933 321.68 93.38C321.373 92.9667 320.953 92.66 320.42 92.46C319.9 92.26 319.327 92.16 318.7 92.16H317.66V90.74H318.7C319.607 90.74 320.313 90.5333 320.82 90.12C321.34 89.7067 321.6 89.1267 321.6 88.38C321.6 87.7533 321.393 87.24 320.98 86.84C320.58 86.4267 319.98 86.22 319.18 86.22C318.407 86.22 317.787 86.4533 317.32 86.92C316.853 87.3733 316.593 87.9467 316.54 88.64H314.84C314.88 87.88 315.08 87.2067 315.44 86.62C315.813 86.0333 316.32 85.58 316.96 85.26C317.6 84.9267 318.34 84.76 319.18 84.76C320.087 84.76 320.84 84.92 321.44 85.24C322.053 85.56 322.513 85.9867 322.82 86.52C323.14 87.0533 323.3 87.64 323.3 88.28C323.3 88.9867 323.107 89.6333 322.72 90.22C322.333 90.7933 321.753 91.18 320.98 91.38C321.807 91.5533 322.493 91.9467 323.04 92.56C323.587 93.1733 323.86 93.98 323.86 94.98C323.86 95.7533 323.68 96.4667 323.32 97.12C322.973 97.76 322.453 98.2733 321.76 98.66C321.067 99.0467 320.207 99.24 319.18 99.24ZM326.578 99V85H335.238V86.38H328.258V91.26H334.638V92.62H328.258V97.62H335.238V99H326.578ZM343.327 99.24C342.087 99.24 341.013 98.94 340.107 98.34C339.213 97.7267 338.527 96.88 338.047 95.8C337.567 94.7067 337.327 93.44 337.327 92C337.327 90.56 337.567 89.3 338.047 88.22C338.527 87.1267 339.213 86.28 340.107 85.68C341.013 85.0667 342.087 84.76 343.327 84.76C344.567 84.76 345.633 85.0667 346.527 85.68C347.42 86.28 348.107 87.1267 348.587 88.22C349.067 89.3 349.307 90.56 349.307 92C349.307 93.44 349.067 94.7067 348.587 95.8C348.107 96.88 347.42 97.7267 346.527 98.34C345.633 98.94 344.567 99.24 343.327 99.24ZM343.327 97.76C344.14 97.76 344.867 97.5333 345.507 97.08C346.16 96.6133 346.667 95.9533 347.027 95.1C347.4 94.2333 347.587 93.2 347.587 92C347.587 90.8 347.4 89.7733 347.027 88.92C346.667 88.0667 346.16 87.4133 345.507 86.96C344.867 86.4933 344.14 86.26 343.327 86.26C342.5 86.26 341.767 86.4933 341.127 86.96C340.487 87.4133 339.98 88.0667 339.607 88.92C339.233 89.7733 339.047 90.8 339.047 92C339.047 93.2 339.233 94.2333 339.607 95.1C339.98 95.9533 340.487 96.6133 341.127 97.08C341.767 97.5333 342.5 97.76 343.327 97.76ZM351.734 99V85H356.034C358.501 85 360.314 85.6267 361.474 86.88C362.647 88.1333 363.234 89.8533 363.234 92.04C363.234 94.1867 362.647 95.8867 361.474 97.14C360.314 98.38 358.501 99 356.034 99H351.734ZM353.414 97.6H355.994C357.354 97.6 358.434 97.38 359.234 96.94C360.047 96.4867 360.627 95.8467 360.974 95.02C361.321 94.18 361.494 93.1867 361.494 92.04C361.494 90.8667 361.321 89.86 360.974 89.02C360.627 88.18 360.047 87.5333 359.234 87.08C358.434 86.6267 357.354 86.4 355.994 86.4H353.414V97.6ZM366.214 99L371.774 86.44H364.094V85H373.494V86.26L367.994 99H366.214Z" fill="black"/>
<path d="M422.546 99L423.406 95.06H420.566V93.56H423.726L424.406 90.3H421.406V88.82H424.726L425.566 84.88H427.166L426.326 88.82H430.626L431.466 84.88H433.046L432.206 88.82H434.986V90.3H431.886L431.206 93.56H434.106V95.06H430.886L430.026 99H428.426L429.286 95.06H424.986L424.146 99H422.546ZM425.306 93.56H429.606L430.306 90.3H426.006L425.306 93.56ZM438.576 99L444.136 86.44H436.456V85H445.856V86.26L440.356 99H438.576ZM448.08 99V85H456.74V86.38H449.76V91.26H456.14V92.62H449.76V97.62H456.74V99H448.08ZM465.509 99.24C464.135 99.24 462.949 98.94 461.949 98.34C460.962 97.7267 460.195 96.88 459.649 95.8C459.102 94.7067 458.829 93.44 458.829 92C458.829 90.5733 459.102 89.32 459.649 88.24C460.195 87.1467 460.962 86.2933 461.949 85.68C462.949 85.0667 464.135 84.76 465.509 84.76C467.109 84.76 468.409 85.1467 469.409 85.92C470.422 86.68 471.069 87.7467 471.349 89.12H469.489C469.275 88.2533 468.835 87.56 468.169 87.04C467.515 86.5067 466.629 86.24 465.509 86.24C464.509 86.24 463.635 86.4733 462.889 86.94C462.142 87.3933 461.562 88.0533 461.149 88.92C460.749 89.7733 460.549 90.8 460.549 92C460.549 93.2 460.749 94.2333 461.149 95.1C461.562 95.9533 462.142 96.6133 462.889 97.08C463.635 97.5333 464.509 97.76 465.509 97.76C466.629 97.76 467.515 97.5067 468.169 97C468.835 96.48 469.275 95.7933 469.489 94.94H471.349C471.069 96.2867 470.422 97.34 469.409 98.1C468.409 98.86 467.109 99.24 465.509 99.24ZM475.143 99V86.88L472.883 87.38V86.22L475.703 85H476.843V99H475.143ZM479.798 99V85H484.098C486.565 85 488.378 85.6267 489.538 86.88C490.712 88.1333 491.298 89.8533 491.298 92.04C491.298 94.1867 490.712 95.8867 489.538 97.14C488.378 98.38 486.565 99 484.098 99H479.798ZM481.478 97.6H484.058C485.418 97.6 486.498 97.38 487.298 96.94C488.112 96.4867 488.692 95.8467 489.038 95.02C489.385 94.18 489.558 93.1867 489.558 92.04C489.558 90.8667 489.385 89.86 489.038 89.02C488.692 88.18 488.112 87.5333 487.298 87.08C486.498 86.6267 485.418 86.4 484.058 86.4H481.478V97.6ZM500.064 99V96H492.964V94.7L499.764 85H501.724V94.52H503.804V96H501.724V99H500.064ZM494.824 94.52H500.144V86.86L494.824 94.52Z" fill="black"/>
<path d="M156.3 99L157.16 95.06H154.32V93.56H157.48L158.16 90.3H155.16V88.82H158.48L159.32 84.88H160.92L160.08 88.82H164.38L165.22 84.88H166.8L165.96 88.82H168.74V90.3H165.64L164.96 93.56H167.86V95.06H164.64L163.78 99H162.18L163.04 95.06H158.74L157.9 99H156.3ZM159.06 93.56H163.36L164.06 90.3H159.76L159.06 93.56ZM171.169 99V85H179.689V86.38H172.849V91.3H178.669V92.66H172.849V99H171.169ZM186.613 99.24C185.653 99.24 184.82 99.0667 184.113 98.72C183.406 98.3733 182.84 97.9 182.413 97.3C182 96.6867 181.746 95.9933 181.653 95.22H183.293C183.453 95.9933 183.826 96.62 184.413 97.1C185 97.5667 185.74 97.8 186.633 97.8C187.3 97.8 187.873 97.6467 188.353 97.34C188.833 97.02 189.2 96.5933 189.453 96.06C189.72 95.5267 189.853 94.9333 189.853 94.28C189.853 93.24 189.56 92.4 188.973 91.76C188.386 91.12 187.626 90.8 186.693 90.8C185.92 90.8 185.26 90.9733 184.713 91.32C184.166 91.6667 183.766 92.12 183.513 92.68H181.913L183.113 85H190.453V86.46H184.413L183.593 90.72C183.913 90.3333 184.353 90.0133 184.913 89.76C185.486 89.5067 186.14 89.38 186.873 89.38C187.793 89.38 188.593 89.5933 189.273 90.02C189.966 90.4467 190.506 91.0267 190.893 91.76C191.28 92.4933 191.473 93.3267 191.473 94.26C191.473 95.1533 191.28 95.98 190.893 96.74C190.52 97.5 189.966 98.1067 189.233 98.56C188.513 99.0133 187.64 99.24 186.613 99.24ZM200.439 99V96H193.339V94.7L200.139 85H202.099V94.52H204.179V96H202.099V99H200.439ZM195.199 94.52H200.519V86.86L195.199 94.52ZM212.349 99.24C210.975 99.24 209.789 98.94 208.789 98.34C207.802 97.7267 207.035 96.88 206.489 95.8C205.942 94.7067 205.669 93.44 205.669 92C205.669 90.5733 205.942 89.32 206.489 88.24C207.035 87.1467 207.802 86.2933 208.789 85.68C209.789 85.0667 210.975 84.76 212.349 84.76C213.949 84.76 215.249 85.1467 216.249 85.92C217.262 86.68 217.909 87.7467 218.189 89.12H216.329C216.115 88.2533 215.675 87.56 215.009 87.04C214.355 86.5067 213.469 86.24 212.349 86.24C211.349 86.24 210.475 86.4733 209.729 86.94C208.982 87.3933 208.402 88.0533 207.989 88.92C207.589 89.7733 207.389 90.8 207.389 92C207.389 93.2 207.589 94.2333 207.989 95.1C208.402 95.9533 208.982 96.6133 209.729 97.08C210.475 97.5333 211.349 97.76 212.349 97.76C213.469 97.76 214.355 97.5067 215.009 97C215.675 96.48 216.115 95.7933 216.329 94.94H218.189C217.909 96.2867 217.262 97.34 216.249 98.1C215.249 98.86 213.949 99.24 212.349 99.24ZM220.383 99V97.82C221.33 97.0733 222.223 96.32 223.063 95.56C223.916 94.7867 224.67 94.0267 225.323 93.28C225.99 92.5333 226.51 91.8 226.883 91.08C227.27 90.36 227.463 89.6667 227.463 89C227.463 88.5067 227.376 88.0467 227.203 87.62C227.043 87.1933 226.776 86.8533 226.403 86.6C226.03 86.3333 225.523 86.2 224.883 86.2C224.27 86.2 223.756 86.34 223.343 86.62C222.93 86.8867 222.616 87.2467 222.403 87.7C222.203 88.1533 222.103 88.64 222.103 89.16H220.483C220.483 88.24 220.676 87.4533 221.063 86.8C221.45 86.1333 221.976 85.6267 222.643 85.28C223.31 84.9333 224.063 84.76 224.903 84.76C226.143 84.76 227.156 85.1133 227.943 85.82C228.743 86.5133 229.143 87.5533 229.143 88.94C229.143 89.7667 228.936 90.5867 228.523 91.4C228.11 92.2 227.583 92.98 226.943 93.74C226.303 94.4867 225.616 95.1867 224.883 95.84C224.163 96.4933 223.49 97.08 222.863 97.6H229.623V99H220.383ZM232.048 99V85H236.968C237.955 85 238.768 85.16 239.408 85.48C240.062 85.7867 240.548 86.2133 240.868 86.76C241.188 87.2933 241.348 87.8933 241.348 88.56C241.348 89.4667 241.102 90.18 240.608 90.7C240.128 91.22 239.548 91.58 238.868 91.78C239.388 91.8733 239.862 92.08 240.288 92.4C240.715 92.72 241.048 93.12 241.288 93.6C241.542 94.08 241.668 94.6067 241.668 95.18C241.668 95.8867 241.495 96.5333 241.148 97.12C240.802 97.6933 240.288 98.1533 239.608 98.5C238.928 98.8333 238.102 99 237.128 99H232.048ZM233.728 91.12H236.848C237.742 91.12 238.428 90.9133 238.908 90.5C239.388 90.0733 239.628 89.4867 239.628 88.74C239.628 88.0333 239.388 87.4667 238.908 87.04C238.442 86.6133 237.735 86.4 236.788 86.4H233.728V91.12ZM233.728 97.6H236.948C237.908 97.6 238.648 97.38 239.168 96.94C239.688 96.4867 239.948 95.86 239.948 95.06C239.948 94.2733 239.675 93.6467 239.128 93.18C238.582 92.7 237.842 92.46 236.908 92.46H233.728V97.6Z" fill="white"/>
<path d="M547.154 99L548.014 95.06H545.174V93.56H548.334L549.014 90.3H546.014V88.82H549.334L550.174 84.88H551.774L550.934 88.82H555.234L556.074 84.88H557.654L556.814 88.82H559.594V90.3H556.494L555.814 93.56H558.714V95.06H555.494L554.634 99H553.034L553.894 95.06H549.594L548.754 99H547.154ZM549.914 93.56H554.214L554.914 90.3H550.614L549.914 93.56ZM567.483 99.24C566.243 99.24 565.17 98.94 564.263 98.34C563.37 97.7267 562.683 96.88 562.203 95.8C561.723 94.7067 561.483 93.44 561.483 92C561.483 90.56 561.723 89.3 562.203 88.22C562.683 87.1267 563.37 86.28 564.263 85.68C565.17 85.0667 566.243 84.76 567.483 84.76C568.723 84.76 569.79 85.0667 570.683 85.68C571.576 86.28 572.263 87.1267 572.743 88.22C573.223 89.3 573.463 90.56 573.463 92C573.463 93.44 573.223 94.7067 572.743 95.8C572.263 96.88 571.576 97.7267 570.683 98.34C569.79 98.94 568.723 99.24 567.483 99.24ZM567.483 97.76C568.296 97.76 569.023 97.5333 569.663 97.08C570.316 96.6133 570.823 95.9533 571.183 95.1C571.556 94.2333 571.743 93.2 571.743 92C571.743 90.8 571.556 89.7733 571.183 88.92C570.823 88.0667 570.316 87.4133 569.663 86.96C569.023 86.4933 568.296 86.26 567.483 86.26C566.656 86.26 565.923 86.4933 565.283 86.96C564.643 87.4133 564.136 88.0667 563.763 88.92C563.39 89.7733 563.203 90.8 563.203 92C563.203 93.2 563.39 94.2333 563.763 95.1C564.136 95.9533 564.643 96.6133 565.283 97.08C565.923 97.5333 566.656 97.76 567.483 97.76ZM581.35 99.24C580.11 99.24 579.037 98.94 578.13 98.34C577.237 97.7267 576.55 96.88 576.07 95.8C575.59 94.7067 575.35 93.44 575.35 92C575.35 90.56 575.59 89.3 576.07 88.22C576.55 87.1267 577.237 86.28 578.13 85.68C579.037 85.0667 580.11 84.76 581.35 84.76C582.59 84.76 583.657 85.0667 584.55 85.68C585.443 86.28 586.13 87.1267 586.61 88.22C587.09 89.3 587.33 90.56 587.33 92C587.33 93.44 587.09 94.7067 586.61 95.8C586.13 96.88 585.443 97.7267 584.55 98.34C583.657 98.94 582.59 99.24 581.35 99.24ZM581.35 97.76C582.163 97.76 582.89 97.5333 583.53 97.08C584.183 96.6133 584.69 95.9533 585.05 95.1C585.423 94.2333 585.61 93.2 585.61 92C585.61 90.8 585.423 89.7733 585.05 88.92C584.69 88.0667 584.183 87.4133 583.53 86.96C582.89 86.4933 582.163 86.26 581.35 86.26C580.523 86.26 579.79 86.4933 579.15 86.96C578.51 87.4133 578.003 88.0667 577.63 88.92C577.257 89.7733 577.07 90.8 577.07 92C577.07 93.2 577.257 94.2333 577.63 95.1C578.003 95.9533 578.51 96.6133 579.15 97.08C579.79 97.5333 580.523 97.76 581.35 97.76ZM595.217 99.24C593.977 99.24 592.904 98.94 591.997 98.34C591.104 97.7267 590.417 96.88 589.937 95.8C589.457 94.7067 589.217 93.44 589.217 92C589.217 90.56 589.457 89.3 589.937 88.22C590.417 87.1267 591.104 86.28 591.997 85.68C592.904 85.0667 593.977 84.76 595.217 84.76C596.457 84.76 597.524 85.0667 598.417 85.68C599.311 86.28 599.997 87.1267 600.477 88.22C600.957 89.3 601.197 90.56 601.197 92C601.197 93.44 600.957 94.7067 600.477 95.8C599.997 96.88 599.311 97.7267 598.417 98.34C597.524 98.94 596.457 99.24 595.217 99.24ZM595.217 97.76C596.031 97.76 596.757 97.5333 597.397 97.08C598.051 96.6133 598.557 95.9533 598.917 95.1C599.291 94.2333 599.477 93.2 599.477 92C599.477 90.8 599.291 89.7733 598.917 88.92C598.557 88.0667 598.051 87.4133 597.397 86.96C596.757 86.4933 596.031 86.26 595.217 86.26C594.391 86.26 593.657 86.4933 593.017 86.96C592.377 87.4133 591.871 88.0667 591.497 88.92C591.124 89.7733 590.937 90.8 590.937 92C590.937 93.2 591.124 94.2333 591.497 95.1C591.871 95.9533 592.377 96.6133 593.017 97.08C593.657 97.5333 594.391 97.76 595.217 97.76ZM609.085 99.24C607.845 99.24 606.771 98.94 605.865 98.34C604.971 97.7267 604.285 96.88 603.805 95.8C603.325 94.7067 603.085 93.44 603.085 92C603.085 90.56 603.325 89.3 603.805 88.22C604.285 87.1267 604.971 86.28 605.865 85.68C606.771 85.0667 607.845 84.76 609.085 84.76C610.325 84.76 611.391 85.0667 612.285 85.68C613.178 86.28 613.865 87.1267 614.345 88.22C614.825 89.3 615.065 90.56 615.065 92C615.065 93.44 614.825 94.7067 614.345 95.8C613.865 96.88 613.178 97.7267 612.285 98.34C611.391 98.94 610.325 99.24 609.085 99.24ZM609.085 97.76C609.898 97.76 610.625 97.5333 611.265 97.08C611.918 96.6133 612.425 95.9533 612.785 95.1C613.158 94.2333 613.345 93.2 613.345 92C613.345 90.8 613.158 89.7733 612.785 88.92C612.425 88.0667 611.918 87.4133 611.265 86.96C610.625 86.4933 609.898 86.26 609.085 86.26C608.258 86.26 607.525 86.4933 606.885 86.96C606.245 87.4133 605.738 88.0667 605.365 88.92C604.991 89.7733 604.805 90.8 604.805 92C604.805 93.2 604.991 94.2333 605.365 95.1C605.738 95.9533 606.245 96.6133 606.885 97.08C607.525 97.5333 608.258 97.76 609.085 97.76ZM622.952 99.24C621.712 99.24 620.638 98.94 619.732 98.34C618.838 97.7267 618.152 96.88 617.672 95.8C617.192 94.7067 616.952 93.44 616.952 92C616.952 90.56 617.192 89.3 617.672 88.22C618.152 87.1267 618.838 86.28 619.732 85.68C620.638 85.0667 621.712 84.76 622.952 84.76C624.192 84.76 625.258 85.0667 626.152 85.68C627.045 86.28 627.732 87.1267 628.212 88.22C628.692 89.3 628.932 90.56 628.932 92C628.932 93.44 628.692 94.7067 628.212 95.8C627.732 96.88 627.045 97.7267 626.152 98.34C625.258 98.94 624.192 99.24 622.952 99.24ZM622.952 97.76C623.765 97.76 624.492 97.5333 625.132 97.08C625.785 96.6133 626.292 95.9533 626.652 95.1C627.025 94.2333 627.212 93.2 627.212 92C627.212 90.8 627.025 89.7733 626.652 88.92C626.292 88.0667 625.785 87.4133 625.132 86.96C624.492 86.4933 623.765 86.26 622.952 86.26C622.125 86.26 621.392 86.4933 620.752 86.96C620.112 87.4133 619.605 88.0667 619.232 88.92C618.858 89.7733 618.672 90.8 618.672 92C618.672 93.2 618.858 94.2333 619.232 95.1C619.605 95.9533 620.112 96.6133 620.752 97.08C621.392 97.5333 622.125 97.76 622.952 97.76ZM636.819 99.24C635.579 99.24 634.506 98.94 633.599 98.34C632.706 97.7267 632.019 96.88 631.539 95.8C631.059 94.7067 630.819 93.44 630.819 92C630.819 90.56 631.059 89.3 631.539 88.22C632.019 87.1267 632.706 86.28 633.599 85.68C634.506 85.0667 635.579 84.76 636.819 84.76C638.059 84.76 639.126 85.0667 640.019 85.68C640.912 86.28 641.599 87.1267 642.079 88.22C642.559 89.3 642.799 90.56 642.799 92C642.799 93.44 642.559 94.7067 642.079 95.8C641.599 96.88 640.912 97.7267 640.019 98.34C639.126 98.94 638.059 99.24 636.819 99.24ZM636.819 97.76C637.632 97.76 638.359 97.5333 638.999 97.08C639.652 96.6133 640.159 95.9533 640.519 95.1C640.892 94.2333 641.079 93.2 641.079 92C641.079 90.8 640.892 89.7733 640.519 88.92C640.159 88.0667 639.652 87.4133 638.999 86.96C638.359 86.4933 637.632 86.26 636.819 86.26C635.992 86.26 635.259 86.4933 634.619 86.96C633.979 87.4133 633.472 88.0667 633.099 88.92C632.726 89.7733 632.539 90.8 632.539 92C632.539 93.2 632.726 94.2333 633.099 95.1C633.472 95.9533 633.979 96.6133 634.619 97.08C635.259 97.5333 635.992 97.76 636.819 97.76Z" fill="white"/>
</svg>
