<svg width="250" height="181" viewBox="0 0 250 181" fill="none" xmlns="http://www.w3.org/2000/svg">
<rect width="250" height="55" fill="#F54C2B"/>
<path d="M46.766 20.648C45.45 20.648 44.322 21.776 44.322 23.139V36.863C43.147 38.414 40.985 39.824 38.494 39.824C35.721 39.824 33.935 38.743 33.935 35.218V23.139C33.935 21.776 32.807 20.648 31.491 20.648C30.128 20.648 29 21.776 29 23.139V37.004C29 41.657 31.397 44.195 36.285 44.195C39.857 44.195 42.677 42.456 44.322 40.67V41.422C44.322 42.785 45.45 43.913 46.813 43.913C48.129 43.913 49.257 42.785 49.257 41.422V23.139C49.257 21.776 48.129 20.648 46.766 20.648Z" fill="white"/>
<path d="M70.049 20.554C69.626 20.554 69.297 20.648 68.733 20.836C67.276 21.306 65.584 22.669 64.362 24.267V23.139C64.362 21.776 63.234 20.648 61.871 20.648C60.555 20.648 59.427 21.776 59.427 23.139V41.422C59.427 42.785 60.555 43.913 61.918 43.913C63.234 43.913 64.362 42.785 64.362 41.422V28.168C65.349 26.57 67.84 25.442 69.532 25.207C71.224 24.972 72.07 23.985 72.07 22.857C72.07 21.635 71.459 20.554 70.049 20.554Z" fill="white"/>
<path d="M91.7009 20.366C88.8339 20.366 86.2019 21.682 84.4159 24.079V14.491C84.4159 13.128 83.2879 12 81.9719 12C80.6089 12 79.4809 13.128 79.4809 14.491V41.422C79.4809 42.785 80.6089 43.913 81.9719 43.913C83.2879 43.913 84.4159 42.785 84.4159 41.422V40.529C86.1549 42.785 88.7399 44.195 91.7009 44.195C97.4819 44.195 101.759 39.777 101.759 32.304C101.759 24.972 97.5289 20.366 91.7009 20.366ZM90.2439 39.824C87.9409 39.824 85.4969 38.508 84.4159 36.816V27.839C85.4969 26.147 87.9409 24.737 90.2439 24.737C94.1919 24.737 96.6829 27.886 96.6829 32.304C96.6829 36.722 94.1919 39.824 90.2439 39.824Z" fill="white"/>
<path d="M119.904 20.366C116.849 20.366 114.029 21.212 111.538 23.045C111.068 23.374 110.692 23.985 110.692 24.643C110.692 25.724 111.585 26.617 112.666 26.617C113.089 26.617 113.512 26.476 113.794 26.288C115.486 25.113 117.178 24.596 119.105 24.596C122.254 24.596 124.416 26.194 124.416 28.826V32.21C122.771 30.283 120.139 29.296 117.084 29.296C113.371 29.296 109.188 31.458 109.188 36.675C109.188 41.704 113.371 44.195 117.084 44.195C120.092 44.195 122.724 43.114 124.416 41.187V41.422C124.416 42.785 125.544 43.913 126.86 43.913C128.223 43.913 129.351 42.785 129.351 41.422V28.591C129.351 22.481 124.933 20.366 119.904 20.366ZM119.011 40.811C116.238 40.811 114.17 39.213 114.17 36.769C114.17 34.278 116.238 32.68 119.011 32.68C121.173 32.68 123.288 33.479 124.416 35.03V38.461C123.288 40.012 121.173 40.811 119.011 40.811Z" fill="white"/>
<path d="M152.434 20.366C148.862 20.366 145.948 22.246 144.444 24.032V23.139C144.444 21.776 143.316 20.648 141.953 20.648C140.637 20.648 139.509 21.776 139.509 23.139V41.422C139.509 42.785 140.637 43.913 142 43.913C143.316 43.913 144.444 42.785 144.444 41.422V27.792C145.572 26.241 147.734 24.737 150.272 24.737C153.045 24.737 154.831 25.912 154.831 29.437V41.422C154.831 42.785 155.959 43.913 157.275 43.913C158.638 43.913 159.766 42.785 159.766 41.422V27.651C159.766 22.998 157.322 20.366 152.434 20.366Z" fill="white"/>
<path d="M168.526 32.257C168.526 39.448 173.602 44.195 180.417 44.195C183.284 44.195 186.01 43.49 188.266 41.986C188.783 41.61 189.159 41.046 189.159 40.341C189.159 39.26 188.266 38.367 187.185 38.367C186.762 38.367 186.386 38.461 186.104 38.649C184.506 39.636 182.579 40.153 180.934 40.153C176.657 40.153 174.072 37.333 173.696 33.902H188.313C190.193 33.902 191.227 33.056 191.227 31.599C191.227 25.583 186.856 20.366 180.041 20.366C173.32 20.366 168.526 25.677 168.526 32.257ZM180.041 24.408C184.506 24.408 186.339 27.745 186.433 30.424H173.649C173.884 27.651 175.811 24.408 180.041 24.408Z" fill="white"/>
<path d="M198.448 32.257C198.448 39.448 203.524 44.195 210.339 44.195C213.206 44.195 215.932 43.49 218.188 41.986C218.705 41.61 219.081 41.046 219.081 40.341C219.081 39.26 218.188 38.367 217.107 38.367C216.684 38.367 216.308 38.461 216.026 38.649C214.428 39.636 212.501 40.153 210.856 40.153C206.579 40.153 203.994 37.333 203.618 33.902H218.235C220.115 33.902 221.149 33.056 221.149 31.599C221.149 25.583 216.778 20.366 209.963 20.366C203.242 20.366 198.448 25.677 198.448 32.257ZM209.963 24.408C214.428 24.408 216.261 27.745 216.355 30.424H203.571C203.806 27.651 205.733 24.408 209.963 24.408Z" fill="white"/>
<rect y="126" width="250" height="55" fill="#101010"/>
<path d="M46.766 146.648C45.45 146.648 44.322 147.776 44.322 149.139V162.863C43.147 164.414 40.985 165.824 38.494 165.824C35.721 165.824 33.935 164.743 33.935 161.218V149.139C33.935 147.776 32.807 146.648 31.491 146.648C30.128 146.648 29 147.776 29 149.139V163.004C29 167.657 31.397 170.195 36.285 170.195C39.857 170.195 42.677 168.456 44.322 166.67V167.422C44.322 168.785 45.45 169.913 46.813 169.913C48.129 169.913 49.257 168.785 49.257 167.422V149.139C49.257 147.776 48.129 146.648 46.766 146.648Z" fill="white"/>
<path d="M70.049 146.554C69.626 146.554 69.297 146.648 68.733 146.836C67.276 147.306 65.584 148.669 64.362 150.267V149.139C64.362 147.776 63.234 146.648 61.871 146.648C60.555 146.648 59.427 147.776 59.427 149.139V167.422C59.427 168.785 60.555 169.913 61.918 169.913C63.234 169.913 64.362 168.785 64.362 167.422V154.168C65.349 152.57 67.84 151.442 69.532 151.207C71.224 150.972 72.07 149.985 72.07 148.857C72.07 147.635 71.459 146.554 70.049 146.554Z" fill="white"/>
<path d="M91.7009 146.366C88.8339 146.366 86.2019 147.682 84.4159 150.079V140.491C84.4159 139.128 83.2879 138 81.9719 138C80.6089 138 79.4809 139.128 79.4809 140.491V167.422C79.4809 168.785 80.6089 169.913 81.9719 169.913C83.2879 169.913 84.4159 168.785 84.4159 167.422V166.529C86.1549 168.785 88.7399 170.195 91.7009 170.195C97.4819 170.195 101.759 165.777 101.759 158.304C101.759 150.972 97.5289 146.366 91.7009 146.366ZM90.2439 165.824C87.9409 165.824 85.4969 164.508 84.4159 162.816V153.839C85.4969 152.147 87.9409 150.737 90.2439 150.737C94.1919 150.737 96.6829 153.886 96.6829 158.304C96.6829 162.722 94.1919 165.824 90.2439 165.824Z" fill="white"/>
<path d="M119.904 146.366C116.849 146.366 114.029 147.212 111.538 149.045C111.068 149.374 110.692 149.985 110.692 150.643C110.692 151.724 111.585 152.617 112.666 152.617C113.089 152.617 113.512 152.476 113.794 152.288C115.486 151.113 117.178 150.596 119.105 150.596C122.254 150.596 124.416 152.194 124.416 154.826V158.21C122.771 156.283 120.139 155.296 117.084 155.296C113.371 155.296 109.188 157.458 109.188 162.675C109.188 167.704 113.371 170.195 117.084 170.195C120.092 170.195 122.724 169.114 124.416 167.187V167.422C124.416 168.785 125.544 169.913 126.86 169.913C128.223 169.913 129.351 168.785 129.351 167.422V154.591C129.351 148.481 124.933 146.366 119.904 146.366ZM119.011 166.811C116.238 166.811 114.17 165.213 114.17 162.769C114.17 160.278 116.238 158.68 119.011 158.68C121.173 158.68 123.288 159.479 124.416 161.03V164.461C123.288 166.012 121.173 166.811 119.011 166.811Z" fill="white"/>
<path d="M152.434 146.366C148.862 146.366 145.948 148.246 144.444 150.032V149.139C144.444 147.776 143.316 146.648 141.953 146.648C140.637 146.648 139.509 147.776 139.509 149.139V167.422C139.509 168.785 140.637 169.913 142 169.913C143.316 169.913 144.444 168.785 144.444 167.422V153.792C145.572 152.241 147.734 150.737 150.272 150.737C153.045 150.737 154.831 151.912 154.831 155.437V167.422C154.831 168.785 155.959 169.913 157.275 169.913C158.638 169.913 159.766 168.785 159.766 167.422V153.651C159.766 148.998 157.322 146.366 152.434 146.366Z" fill="white"/>
<path d="M168.526 158.257C168.526 165.448 173.602 170.195 180.417 170.195C183.284 170.195 186.01 169.49 188.266 167.986C188.783 167.61 189.159 167.046 189.159 166.341C189.159 165.26 188.266 164.367 187.185 164.367C186.762 164.367 186.386 164.461 186.104 164.649C184.506 165.636 182.579 166.153 180.934 166.153C176.657 166.153 174.072 163.333 173.696 159.902H188.313C190.193 159.902 191.227 159.056 191.227 157.599C191.227 151.583 186.856 146.366 180.041 146.366C173.32 146.366 168.526 151.677 168.526 158.257ZM180.041 150.408C184.506 150.408 186.339 153.745 186.433 156.424H173.649C173.884 153.651 175.811 150.408 180.041 150.408Z" fill="white"/>
<path d="M198.448 158.257C198.448 165.448 203.524 170.195 210.339 170.195C213.206 170.195 215.932 169.49 218.188 167.986C218.705 167.61 219.081 167.046 219.081 166.341C219.081 165.26 218.188 164.367 217.107 164.367C216.684 164.367 216.308 164.461 216.026 164.649C214.428 165.636 212.501 166.153 210.856 166.153C206.579 166.153 203.994 163.333 203.618 159.902H218.235C220.115 159.902 221.149 159.056 221.149 157.599C221.149 151.583 216.778 146.366 209.963 146.366C203.242 146.366 198.448 151.677 198.448 158.257ZM209.963 150.408C214.428 150.408 216.261 153.745 216.355 156.424H203.571C203.806 153.651 205.733 150.408 209.963 150.408Z" fill="white"/>
<rect y="63" width="250" height="55" fill="white"/>
<path d="M46.766 83.648C45.45 83.648 44.322 84.776 44.322 86.139V99.863C43.147 101.414 40.985 102.824 38.494 102.824C35.721 102.824 33.935 101.743 33.935 98.218V86.139C33.935 84.776 32.807 83.648 31.491 83.648C30.128 83.648 29 84.776 29 86.139V100.004C29 104.657 31.397 107.195 36.285 107.195C39.857 107.195 42.677 105.456 44.322 103.67V104.422C44.322 105.785 45.45 106.913 46.813 106.913C48.129 106.913 49.257 105.785 49.257 104.422V86.139C49.257 84.776 48.129 83.648 46.766 83.648Z" fill="black"/>
<path d="M70.049 83.554C69.626 83.554 69.297 83.648 68.733 83.836C67.276 84.306 65.584 85.669 64.362 87.267V86.139C64.362 84.776 63.234 83.648 61.871 83.648C60.555 83.648 59.427 84.776 59.427 86.139V104.422C59.427 105.785 60.555 106.913 61.918 106.913C63.234 106.913 64.362 105.785 64.362 104.422V91.168C65.349 89.57 67.84 88.442 69.532 88.207C71.224 87.972 72.07 86.985 72.07 85.857C72.07 84.635 71.459 83.554 70.049 83.554Z" fill="black"/>
<path d="M91.7009 83.366C88.8339 83.366 86.2019 84.682 84.4159 87.079V77.491C84.4159 76.128 83.2879 75 81.9719 75C80.6089 75 79.4809 76.128 79.4809 77.491V104.422C79.4809 105.785 80.6089 106.913 81.9719 106.913C83.2879 106.913 84.4159 105.785 84.4159 104.422V103.529C86.1549 105.785 88.7399 107.195 91.7009 107.195C97.4819 107.195 101.759 102.777 101.759 95.304C101.759 87.972 97.5289 83.366 91.7009 83.366ZM90.2439 102.824C87.9409 102.824 85.4969 101.508 84.4159 99.816V90.839C85.4969 89.147 87.9409 87.737 90.2439 87.737C94.1919 87.737 96.6829 90.886 96.6829 95.304C96.6829 99.722 94.1919 102.824 90.2439 102.824Z" fill="black"/>
<path d="M119.904 83.366C116.849 83.366 114.029 84.212 111.538 86.045C111.068 86.374 110.692 86.985 110.692 87.643C110.692 88.724 111.585 89.617 112.666 89.617C113.089 89.617 113.512 89.476 113.794 89.288C115.486 88.113 117.178 87.596 119.105 87.596C122.254 87.596 124.416 89.194 124.416 91.826V95.21C122.771 93.283 120.139 92.296 117.084 92.296C113.371 92.296 109.188 94.458 109.188 99.675C109.188 104.704 113.371 107.195 117.084 107.195C120.092 107.195 122.724 106.114 124.416 104.187V104.422C124.416 105.785 125.544 106.913 126.86 106.913C128.223 106.913 129.351 105.785 129.351 104.422V91.591C129.351 85.481 124.933 83.366 119.904 83.366ZM119.011 103.811C116.238 103.811 114.17 102.213 114.17 99.769C114.17 97.278 116.238 95.68 119.011 95.68C121.173 95.68 123.288 96.479 124.416 98.03V101.461C123.288 103.012 121.173 103.811 119.011 103.811Z" fill="black"/>
<path d="M152.434 83.366C148.862 83.366 145.948 85.246 144.444 87.032V86.139C144.444 84.776 143.316 83.648 141.953 83.648C140.637 83.648 139.509 84.776 139.509 86.139V104.422C139.509 105.785 140.637 106.913 142 106.913C143.316 106.913 144.444 105.785 144.444 104.422V90.792C145.572 89.241 147.734 87.737 150.272 87.737C153.045 87.737 154.831 88.912 154.831 92.437V104.422C154.831 105.785 155.959 106.913 157.275 106.913C158.638 106.913 159.766 105.785 159.766 104.422V90.651C159.766 85.998 157.322 83.366 152.434 83.366Z" fill="black"/>
<path d="M168.526 95.257C168.526 102.448 173.602 107.195 180.417 107.195C183.284 107.195 186.01 106.49 188.266 104.986C188.783 104.61 189.159 104.046 189.159 103.341C189.159 102.26 188.266 101.367 187.185 101.367C186.762 101.367 186.386 101.461 186.104 101.649C184.506 102.636 182.579 103.153 180.934 103.153C176.657 103.153 174.072 100.333 173.696 96.902H188.313C190.193 96.902 191.227 96.056 191.227 94.599C191.227 88.583 186.856 83.366 180.041 83.366C173.32 83.366 168.526 88.677 168.526 95.257ZM180.041 87.408C184.506 87.408 186.339 90.745 186.433 93.424H173.649C173.884 90.651 175.811 87.408 180.041 87.408Z" fill="black"/>
<path d="M198.448 95.257C198.448 102.448 203.524 107.195 210.339 107.195C213.206 107.195 215.932 106.49 218.188 104.986C218.705 104.61 219.081 104.046 219.081 103.341C219.081 102.26 218.188 101.367 217.107 101.367C216.684 101.367 216.308 101.461 216.026 101.649C214.428 102.636 212.501 103.153 210.856 103.153C206.579 103.153 203.994 100.333 203.618 96.902H218.235C220.115 96.902 221.149 96.056 221.149 94.599C221.149 88.583 216.778 83.366 209.963 83.366C203.242 83.366 198.448 88.677 198.448 95.257ZM209.963 87.408C214.428 87.408 216.261 90.745 216.355 93.424H203.571C203.806 90.651 205.733 87.408 209.963 87.408Z" fill="black"/>
</svg>
