<svg width="916" height="181" viewBox="0 0 916 181" fill="none" xmlns="http://www.w3.org/2000/svg">
<rect width="250" height="55" fill="#F54C2B"/>
<path d="M46.766 20.648C45.45 20.648 44.322 21.776 44.322 23.139V36.863C43.147 38.414 40.985 39.824 38.494 39.824C35.721 39.824 33.935 38.743 33.935 35.218V23.139C33.935 21.776 32.807 20.648 31.491 20.648C30.128 20.648 29 21.776 29 23.139V37.004C29 41.657 31.397 44.195 36.285 44.195C39.857 44.195 42.677 42.456 44.322 40.67V41.422C44.322 42.785 45.45 43.913 46.813 43.913C48.129 43.913 49.257 42.785 49.257 41.422V23.139C49.257 21.776 48.129 20.648 46.766 20.648Z" fill="white"/>
<path d="M70.049 20.554C69.626 20.554 69.297 20.648 68.733 20.836C67.276 21.306 65.584 22.669 64.362 24.267V23.139C64.362 21.776 63.234 20.648 61.871 20.648C60.555 20.648 59.427 21.776 59.427 23.139V41.422C59.427 42.785 60.555 43.913 61.918 43.913C63.234 43.913 64.362 42.785 64.362 41.422V28.168C65.349 26.57 67.84 25.442 69.532 25.207C71.224 24.972 72.07 23.985 72.07 22.857C72.07 21.635 71.459 20.554 70.049 20.554Z" fill="white"/>
<path d="M91.7009 20.366C88.8339 20.366 86.2019 21.682 84.4159 24.079V14.491C84.4159 13.128 83.2879 12 81.9719 12C80.6089 12 79.4809 13.128 79.4809 14.491V41.422C79.4809 42.785 80.6089 43.913 81.9719 43.913C83.2879 43.913 84.4159 42.785 84.4159 41.422V40.529C86.1549 42.785 88.7399 44.195 91.7009 44.195C97.4819 44.195 101.759 39.777 101.759 32.304C101.759 24.972 97.5289 20.366 91.7009 20.366ZM90.2439 39.824C87.9409 39.824 85.4969 38.508 84.4159 36.816V27.839C85.4969 26.147 87.9409 24.737 90.2439 24.737C94.1919 24.737 96.6829 27.886 96.6829 32.304C96.6829 36.722 94.1919 39.824 90.2439 39.824Z" fill="white"/>
<path d="M119.904 20.366C116.849 20.366 114.029 21.212 111.538 23.045C111.068 23.374 110.692 23.985 110.692 24.643C110.692 25.724 111.585 26.617 112.666 26.617C113.089 26.617 113.512 26.476 113.794 26.288C115.486 25.113 117.178 24.596 119.105 24.596C122.254 24.596 124.416 26.194 124.416 28.826V32.21C122.771 30.283 120.139 29.296 117.084 29.296C113.371 29.296 109.188 31.458 109.188 36.675C109.188 41.704 113.371 44.195 117.084 44.195C120.092 44.195 122.724 43.114 124.416 41.187V41.422C124.416 42.785 125.544 43.913 126.86 43.913C128.223 43.913 129.351 42.785 129.351 41.422V28.591C129.351 22.481 124.933 20.366 119.904 20.366ZM119.011 40.811C116.238 40.811 114.17 39.213 114.17 36.769C114.17 34.278 116.238 32.68 119.011 32.68C121.173 32.68 123.288 33.479 124.416 35.03V38.461C123.288 40.012 121.173 40.811 119.011 40.811Z" fill="white"/>
<path d="M152.434 20.366C148.862 20.366 145.948 22.246 144.444 24.032V23.139C144.444 21.776 143.316 20.648 141.953 20.648C140.637 20.648 139.509 21.776 139.509 23.139V41.422C139.509 42.785 140.637 43.913 142 43.913C143.316 43.913 144.444 42.785 144.444 41.422V27.792C145.572 26.241 147.734 24.737 150.272 24.737C153.045 24.737 154.831 25.912 154.831 29.437V41.422C154.831 42.785 155.959 43.913 157.275 43.913C158.638 43.913 159.766 42.785 159.766 41.422V27.651C159.766 22.998 157.322 20.366 152.434 20.366Z" fill="white"/>
<path d="M168.526 32.257C168.526 39.448 173.602 44.195 180.417 44.195C183.284 44.195 186.01 43.49 188.266 41.986C188.783 41.61 189.159 41.046 189.159 40.341C189.159 39.26 188.266 38.367 187.185 38.367C186.762 38.367 186.386 38.461 186.104 38.649C184.506 39.636 182.579 40.153 180.934 40.153C176.657 40.153 174.072 37.333 173.696 33.902H188.313C190.193 33.902 191.227 33.056 191.227 31.599C191.227 25.583 186.856 20.366 180.041 20.366C173.32 20.366 168.526 25.677 168.526 32.257ZM180.041 24.408C184.506 24.408 186.339 27.745 186.433 30.424H173.649C173.884 27.651 175.811 24.408 180.041 24.408Z" fill="white"/>
<path d="M198.448 32.257C198.448 39.448 203.524 44.195 210.339 44.195C213.206 44.195 215.932 43.49 218.188 41.986C218.705 41.61 219.081 41.046 219.081 40.341C219.081 39.26 218.188 38.367 217.107 38.367C216.684 38.367 216.308 38.461 216.026 38.649C214.428 39.636 212.501 40.153 210.856 40.153C206.579 40.153 203.994 37.333 203.618 33.902H218.235C220.115 33.902 221.149 33.056 221.149 31.599C221.149 25.583 216.778 20.366 209.963 20.366C203.242 20.366 198.448 25.677 198.448 32.257ZM209.963 24.408C214.428 24.408 216.261 27.745 216.355 30.424H203.571C203.806 27.651 205.733 24.408 209.963 24.408Z" fill="white"/>
<rect y="126" width="250" height="55" fill="#101010"/>
<path d="M46.766 146.648C45.45 146.648 44.322 147.776 44.322 149.139V162.863C43.147 164.414 40.985 165.824 38.494 165.824C35.721 165.824 33.935 164.743 33.935 161.218V149.139C33.935 147.776 32.807 146.648 31.491 146.648C30.128 146.648 29 147.776 29 149.139V163.004C29 167.657 31.397 170.195 36.285 170.195C39.857 170.195 42.677 168.456 44.322 166.67V167.422C44.322 168.785 45.45 169.913 46.813 169.913C48.129 169.913 49.257 168.785 49.257 167.422V149.139C49.257 147.776 48.129 146.648 46.766 146.648Z" fill="white"/>
<path d="M70.049 146.554C69.626 146.554 69.297 146.648 68.733 146.836C67.276 147.306 65.584 148.669 64.362 150.267V149.139C64.362 147.776 63.234 146.648 61.871 146.648C60.555 146.648 59.427 147.776 59.427 149.139V167.422C59.427 168.785 60.555 169.913 61.918 169.913C63.234 169.913 64.362 168.785 64.362 167.422V154.168C65.349 152.57 67.84 151.442 69.532 151.207C71.224 150.972 72.07 149.985 72.07 148.857C72.07 147.635 71.459 146.554 70.049 146.554Z" fill="white"/>
<path d="M91.7009 146.366C88.8339 146.366 86.2019 147.682 84.4159 150.079V140.491C84.4159 139.128 83.2879 138 81.9719 138C80.6089 138 79.4809 139.128 79.4809 140.491V167.422C79.4809 168.785 80.6089 169.913 81.9719 169.913C83.2879 169.913 84.4159 168.785 84.4159 167.422V166.529C86.1549 168.785 88.7399 170.195 91.7009 170.195C97.4819 170.195 101.759 165.777 101.759 158.304C101.759 150.972 97.5289 146.366 91.7009 146.366ZM90.2439 165.824C87.9409 165.824 85.4969 164.508 84.4159 162.816V153.839C85.4969 152.147 87.9409 150.737 90.2439 150.737C94.1919 150.737 96.6829 153.886 96.6829 158.304C96.6829 162.722 94.1919 165.824 90.2439 165.824Z" fill="white"/>
<path d="M119.904 146.366C116.849 146.366 114.029 147.212 111.538 149.045C111.068 149.374 110.692 149.985 110.692 150.643C110.692 151.724 111.585 152.617 112.666 152.617C113.089 152.617 113.512 152.476 113.794 152.288C115.486 151.113 117.178 150.596 119.105 150.596C122.254 150.596 124.416 152.194 124.416 154.826V158.21C122.771 156.283 120.139 155.296 117.084 155.296C113.371 155.296 109.188 157.458 109.188 162.675C109.188 167.704 113.371 170.195 117.084 170.195C120.092 170.195 122.724 169.114 124.416 167.187V167.422C124.416 168.785 125.544 169.913 126.86 169.913C128.223 169.913 129.351 168.785 129.351 167.422V154.591C129.351 148.481 124.933 146.366 119.904 146.366ZM119.011 166.811C116.238 166.811 114.17 165.213 114.17 162.769C114.17 160.278 116.238 158.68 119.011 158.68C121.173 158.68 123.288 159.479 124.416 161.03V164.461C123.288 166.012 121.173 166.811 119.011 166.811Z" fill="white"/>
<path d="M152.434 146.366C148.862 146.366 145.948 148.246 144.444 150.032V149.139C144.444 147.776 143.316 146.648 141.953 146.648C140.637 146.648 139.509 147.776 139.509 149.139V167.422C139.509 168.785 140.637 169.913 142 169.913C143.316 169.913 144.444 168.785 144.444 167.422V153.792C145.572 152.241 147.734 150.737 150.272 150.737C153.045 150.737 154.831 151.912 154.831 155.437V167.422C154.831 168.785 155.959 169.913 157.275 169.913C158.638 169.913 159.766 168.785 159.766 167.422V153.651C159.766 148.998 157.322 146.366 152.434 146.366Z" fill="white"/>
<path d="M168.526 158.257C168.526 165.448 173.602 170.195 180.417 170.195C183.284 170.195 186.01 169.49 188.266 167.986C188.783 167.61 189.159 167.046 189.159 166.341C189.159 165.26 188.266 164.367 187.185 164.367C186.762 164.367 186.386 164.461 186.104 164.649C184.506 165.636 182.579 166.153 180.934 166.153C176.657 166.153 174.072 163.333 173.696 159.902H188.313C190.193 159.902 191.227 159.056 191.227 157.599C191.227 151.583 186.856 146.366 180.041 146.366C173.32 146.366 168.526 151.677 168.526 158.257ZM180.041 150.408C184.506 150.408 186.339 153.745 186.433 156.424H173.649C173.884 153.651 175.811 150.408 180.041 150.408Z" fill="white"/>
<path d="M198.448 158.257C198.448 165.448 203.524 170.195 210.339 170.195C213.206 170.195 215.932 169.49 218.188 167.986C218.705 167.61 219.081 167.046 219.081 166.341C219.081 165.26 218.188 164.367 217.107 164.367C216.684 164.367 216.308 164.461 216.026 164.649C214.428 165.636 212.501 166.153 210.856 166.153C206.579 166.153 203.994 163.333 203.618 159.902H218.235C220.115 159.902 221.149 159.056 221.149 157.599C221.149 151.583 216.778 146.366 209.963 146.366C203.242 146.366 198.448 151.677 198.448 158.257ZM209.963 150.408C214.428 150.408 216.261 153.745 216.355 156.424H203.571C203.806 153.651 205.733 150.408 209.963 150.408Z" fill="white"/>
<rect y="63" width="250" height="55" fill="white"/>
<path d="M46.766 83.648C45.45 83.648 44.322 84.776 44.322 86.139V99.863C43.147 101.414 40.985 102.824 38.494 102.824C35.721 102.824 33.935 101.743 33.935 98.218V86.139C33.935 84.776 32.807 83.648 31.491 83.648C30.128 83.648 29 84.776 29 86.139V100.004C29 104.657 31.397 107.195 36.285 107.195C39.857 107.195 42.677 105.456 44.322 103.67V104.422C44.322 105.785 45.45 106.913 46.813 106.913C48.129 106.913 49.257 105.785 49.257 104.422V86.139C49.257 84.776 48.129 83.648 46.766 83.648Z" fill="black"/>
<path d="M70.049 83.554C69.626 83.554 69.297 83.648 68.733 83.836C67.276 84.306 65.584 85.669 64.362 87.267V86.139C64.362 84.776 63.234 83.648 61.871 83.648C60.555 83.648 59.427 84.776 59.427 86.139V104.422C59.427 105.785 60.555 106.913 61.918 106.913C63.234 106.913 64.362 105.785 64.362 104.422V91.168C65.349 89.57 67.84 88.442 69.532 88.207C71.224 87.972 72.07 86.985 72.07 85.857C72.07 84.635 71.459 83.554 70.049 83.554Z" fill="black"/>
<path d="M91.7009 83.366C88.8339 83.366 86.2019 84.682 84.4159 87.079V77.491C84.4159 76.128 83.2879 75 81.9719 75C80.6089 75 79.4809 76.128 79.4809 77.491V104.422C79.4809 105.785 80.6089 106.913 81.9719 106.913C83.2879 106.913 84.4159 105.785 84.4159 104.422V103.529C86.1549 105.785 88.7399 107.195 91.7009 107.195C97.4819 107.195 101.759 102.777 101.759 95.304C101.759 87.972 97.5289 83.366 91.7009 83.366ZM90.2439 102.824C87.9409 102.824 85.4969 101.508 84.4159 99.816V90.839C85.4969 89.147 87.9409 87.737 90.2439 87.737C94.1919 87.737 96.6829 90.886 96.6829 95.304C96.6829 99.722 94.1919 102.824 90.2439 102.824Z" fill="black"/>
<path d="M119.904 83.366C116.849 83.366 114.029 84.212 111.538 86.045C111.068 86.374 110.692 86.985 110.692 87.643C110.692 88.724 111.585 89.617 112.666 89.617C113.089 89.617 113.512 89.476 113.794 89.288C115.486 88.113 117.178 87.596 119.105 87.596C122.254 87.596 124.416 89.194 124.416 91.826V95.21C122.771 93.283 120.139 92.296 117.084 92.296C113.371 92.296 109.188 94.458 109.188 99.675C109.188 104.704 113.371 107.195 117.084 107.195C120.092 107.195 122.724 106.114 124.416 104.187V104.422C124.416 105.785 125.544 106.913 126.86 106.913C128.223 106.913 129.351 105.785 129.351 104.422V91.591C129.351 85.481 124.933 83.366 119.904 83.366ZM119.011 103.811C116.238 103.811 114.17 102.213 114.17 99.769C114.17 97.278 116.238 95.68 119.011 95.68C121.173 95.68 123.288 96.479 124.416 98.03V101.461C123.288 103.012 121.173 103.811 119.011 103.811Z" fill="black"/>
<path d="M152.434 83.366C148.862 83.366 145.948 85.246 144.444 87.032V86.139C144.444 84.776 143.316 83.648 141.953 83.648C140.637 83.648 139.509 84.776 139.509 86.139V104.422C139.509 105.785 140.637 106.913 142 106.913C143.316 106.913 144.444 105.785 144.444 104.422V90.792C145.572 89.241 147.734 87.737 150.272 87.737C153.045 87.737 154.831 88.912 154.831 92.437V104.422C154.831 105.785 155.959 106.913 157.275 106.913C158.638 106.913 159.766 105.785 159.766 104.422V90.651C159.766 85.998 157.322 83.366 152.434 83.366Z" fill="black"/>
<path d="M168.526 95.257C168.526 102.448 173.602 107.195 180.417 107.195C183.284 107.195 186.01 106.49 188.266 104.986C188.783 104.61 189.159 104.046 189.159 103.341C189.159 102.26 188.266 101.367 187.185 101.367C186.762 101.367 186.386 101.461 186.104 101.649C184.506 102.636 182.579 103.153 180.934 103.153C176.657 103.153 174.072 100.333 173.696 96.902H188.313C190.193 96.902 191.227 96.056 191.227 94.599C191.227 88.583 186.856 83.366 180.041 83.366C173.32 83.366 168.526 88.677 168.526 95.257ZM180.041 87.408C184.506 87.408 186.339 90.745 186.433 93.424H173.649C173.884 90.651 175.811 87.408 180.041 87.408Z" fill="black"/>
<path d="M198.448 95.257C198.448 102.448 203.524 107.195 210.339 107.195C213.206 107.195 215.932 106.49 218.188 104.986C218.705 104.61 219.081 104.046 219.081 103.341C219.081 102.26 218.188 101.367 217.107 101.367C216.684 101.367 216.308 101.461 216.026 101.649C214.428 102.636 212.501 103.153 210.856 103.153C206.579 103.153 203.994 100.333 203.618 96.902H218.235C220.115 96.902 221.149 96.056 221.149 94.599C221.149 88.583 216.778 83.366 209.963 83.366C203.242 83.366 198.448 88.677 198.448 95.257ZM209.963 87.408C214.428 87.408 216.261 90.745 216.355 93.424H203.571C203.806 90.651 205.733 87.408 209.963 87.408Z" fill="black"/>
<rect x="256" width="132" height="181" fill="#FBE144"/>
<rect x="388" width="132" height="181" fill="#F54C2B"/>
<rect x="520" width="132" height="181" fill="#E3E0D7"/>
<rect x="784" width="132" height="181" fill="black"/>
<rect x="652" width="132" height="181" fill="#7EC1D4"/>
<path d="M284.627 99L285.487 95.06H282.647V93.56H285.807L286.487 90.3H283.487V88.82H286.807L287.647 84.88H289.247L288.407 88.82H292.707L293.547 84.88H295.127L294.287 88.82H297.067V90.3H293.967L293.287 93.56H296.187V95.06H292.967L292.107 99H290.507L291.367 95.06H287.067L286.227 99H284.627ZM287.387 93.56H291.687L292.387 90.3H288.087L287.387 93.56ZM299.496 99V85H308.016V86.38H301.176V91.3H306.996V92.66H301.176V99H299.496ZM310.179 99V85H315.099C316.086 85 316.899 85.16 317.539 85.48C318.193 85.7867 318.679 86.2133 318.999 86.76C319.319 87.2933 319.479 87.8933 319.479 88.56C319.479 89.4667 319.233 90.18 318.739 90.7C318.259 91.22 317.679 91.58 316.999 91.78C317.519 91.8733 317.993 92.08 318.419 92.4C318.846 92.72 319.179 93.12 319.419 93.6C319.673 94.08 319.799 94.6067 319.799 95.18C319.799 95.8867 319.626 96.5333 319.279 97.12C318.933 97.6933 318.419 98.1533 317.739 98.5C317.059 98.8333 316.233 99 315.259 99H310.179ZM311.859 91.12H314.979C315.873 91.12 316.559 90.9133 317.039 90.5C317.519 90.0733 317.759 89.4867 317.759 88.74C317.759 88.0333 317.519 87.4667 317.039 87.04C316.573 86.6133 315.866 86.4 314.919 86.4H311.859V91.12ZM311.859 97.6H315.079C316.039 97.6 316.779 97.38 317.299 96.94C317.819 96.4867 318.079 95.86 318.079 95.06C318.079 94.2733 317.806 93.6467 317.259 93.18C316.713 92.7 315.973 92.46 315.039 92.46H311.859V97.6ZM322.21 99V85H330.87V86.38H323.89V91.26H330.27V92.62H323.89V97.62H330.87V99H322.21ZM334.88 99V86.88L332.62 87.38V86.22L335.44 85H336.58V99H334.88ZM345.875 99V96H338.775V94.7L345.575 85H347.535V94.52H349.615V96H347.535V99H345.875ZM340.635 94.52H345.955V86.86L340.635 94.52ZM357.984 99V96H350.884V94.7L357.684 85H359.644V94.52H361.724V96H359.644V99H357.984ZM352.744 94.52H358.064V86.86L352.744 94.52Z" fill="black"/>
<path d="M544.662 99L545.522 95.06H542.682V93.56H545.842L546.522 90.3H543.522V88.82H546.842L547.682 84.88H549.282L548.442 88.82H552.742L553.582 84.88H555.162L554.322 88.82H557.102V90.3H554.002L553.322 93.56H556.222V95.06H553.002L552.142 99H550.542L551.402 95.06H547.102L546.262 99H544.662ZM547.422 93.56H551.722L552.422 90.3H548.122L547.422 93.56ZM559.531 99V85H568.191V86.38H561.211V91.26H567.591V92.62H561.211V97.62H568.191V99H559.531ZM575.18 99.24C574.287 99.24 573.48 99.08 572.76 98.76C572.04 98.4267 571.46 97.9333 571.02 97.28C570.593 96.6267 570.367 95.8133 570.34 94.84H572.04C572.053 95.64 572.333 96.3333 572.88 96.92C573.427 97.4933 574.193 97.78 575.18 97.78C576.167 97.78 576.907 97.5067 577.4 96.96C577.907 96.4133 578.16 95.7533 578.16 94.98C578.16 94.3267 578 93.7933 577.68 93.38C577.373 92.9667 576.953 92.66 576.42 92.46C575.9 92.26 575.327 92.16 574.7 92.16H573.66V90.74H574.7C575.607 90.74 576.313 90.5333 576.82 90.12C577.34 89.7067 577.6 89.1267 577.6 88.38C577.6 87.7533 577.393 87.24 576.98 86.84C576.58 86.4267 575.98 86.22 575.18 86.22C574.407 86.22 573.787 86.4533 573.32 86.92C572.853 87.3733 572.593 87.9467 572.54 88.64H570.84C570.88 87.88 571.08 87.2067 571.44 86.62C571.813 86.0333 572.32 85.58 572.96 85.26C573.6 84.9267 574.34 84.76 575.18 84.76C576.087 84.76 576.84 84.92 577.44 85.24C578.053 85.56 578.513 85.9867 578.82 86.52C579.14 87.0533 579.3 87.64 579.3 88.28C579.3 88.9867 579.107 89.6333 578.72 90.22C578.333 90.7933 577.753 91.18 576.98 91.38C577.807 91.5533 578.493 91.9467 579.04 92.56C579.587 93.1733 579.86 93.98 579.86 94.98C579.86 95.7533 579.68 96.4667 579.32 97.12C578.973 97.76 578.453 98.2733 577.76 98.66C577.067 99.0467 576.207 99.24 575.18 99.24ZM582.578 99V85H591.238V86.38H584.258V91.26H590.638V92.62H584.258V97.62H591.238V99H582.578ZM599.327 99.24C598.087 99.24 597.013 98.94 596.107 98.34C595.213 97.7267 594.527 96.88 594.047 95.8C593.567 94.7067 593.327 93.44 593.327 92C593.327 90.56 593.567 89.3 594.047 88.22C594.527 87.1267 595.213 86.28 596.107 85.68C597.013 85.0667 598.087 84.76 599.327 84.76C600.567 84.76 601.633 85.0667 602.527 85.68C603.42 86.28 604.107 87.1267 604.587 88.22C605.067 89.3 605.307 90.56 605.307 92C605.307 93.44 605.067 94.7067 604.587 95.8C604.107 96.88 603.42 97.7267 602.527 98.34C601.633 98.94 600.567 99.24 599.327 99.24ZM599.327 97.76C600.14 97.76 600.867 97.5333 601.507 97.08C602.16 96.6133 602.667 95.9533 603.027 95.1C603.4 94.2333 603.587 93.2 603.587 92C603.587 90.8 603.4 89.7733 603.027 88.92C602.667 88.0667 602.16 87.4133 601.507 86.96C600.867 86.4933 600.14 86.26 599.327 86.26C598.5 86.26 597.767 86.4933 597.127 86.96C596.487 87.4133 595.98 88.0667 595.607 88.92C595.233 89.7733 595.047 90.8 595.047 92C595.047 93.2 595.233 94.2333 595.607 95.1C595.98 95.9533 596.487 96.6133 597.127 97.08C597.767 97.5333 598.5 97.76 599.327 97.76ZM607.734 99V85H612.034C614.501 85 616.314 85.6267 617.474 86.88C618.647 88.1333 619.234 89.8533 619.234 92.04C619.234 94.1867 618.647 95.8867 617.474 97.14C616.314 98.38 614.501 99 612.034 99H607.734ZM609.414 97.6H611.994C613.354 97.6 614.434 97.38 615.234 96.94C616.047 96.4867 616.627 95.8467 616.974 95.02C617.321 94.18 617.494 93.1867 617.494 92.04C617.494 90.8667 617.321 89.86 616.974 89.02C616.627 88.18 616.047 87.5333 615.234 87.08C614.434 86.6267 613.354 86.4 611.994 86.4H609.414V97.6ZM622.214 99L627.774 86.44H620.094V85H629.494V86.26L623.994 99H622.214Z" fill="black"/>
<path d="M678.546 99L679.406 95.06H676.566V93.56H679.726L680.406 90.3H677.406V88.82H680.726L681.566 84.88H683.166L682.326 88.82H686.626L687.466 84.88H689.046L688.206 88.82H690.986V90.3H687.886L687.206 93.56H690.106V95.06H686.886L686.026 99H684.426L685.286 95.06H680.986L680.146 99H678.546ZM681.306 93.56H685.606L686.306 90.3H682.006L681.306 93.56ZM694.576 99L700.136 86.44H692.456V85H701.856V86.26L696.356 99H694.576ZM704.08 99V85H712.74V86.38H705.76V91.26H712.14V92.62H705.76V97.62H712.74V99H704.08ZM721.509 99.24C720.135 99.24 718.949 98.94 717.949 98.34C716.962 97.7267 716.195 96.88 715.649 95.8C715.102 94.7067 714.829 93.44 714.829 92C714.829 90.5733 715.102 89.32 715.649 88.24C716.195 87.1467 716.962 86.2933 717.949 85.68C718.949 85.0667 720.135 84.76 721.509 84.76C723.109 84.76 724.409 85.1467 725.409 85.92C726.422 86.68 727.069 87.7467 727.349 89.12H725.489C725.275 88.2533 724.835 87.56 724.169 87.04C723.515 86.5067 722.629 86.24 721.509 86.24C720.509 86.24 719.635 86.4733 718.889 86.94C718.142 87.3933 717.562 88.0533 717.149 88.92C716.749 89.7733 716.549 90.8 716.549 92C716.549 93.2 716.749 94.2333 717.149 95.1C717.562 95.9533 718.142 96.6133 718.889 97.08C719.635 97.5333 720.509 97.76 721.509 97.76C722.629 97.76 723.515 97.5067 724.169 97C724.835 96.48 725.275 95.7933 725.489 94.94H727.349C727.069 96.2867 726.422 97.34 725.409 98.1C724.409 98.86 723.109 99.24 721.509 99.24ZM731.143 99V86.88L728.883 87.38V86.22L731.703 85H732.843V99H731.143ZM735.798 99V85H740.098C742.565 85 744.378 85.6267 745.538 86.88C746.712 88.1333 747.298 89.8533 747.298 92.04C747.298 94.1867 746.712 95.8867 745.538 97.14C744.378 98.38 742.565 99 740.098 99H735.798ZM737.478 97.6H740.058C741.418 97.6 742.498 97.38 743.298 96.94C744.112 96.4867 744.692 95.8467 745.038 95.02C745.385 94.18 745.558 93.1867 745.558 92.04C745.558 90.8667 745.385 89.86 745.038 89.02C744.692 88.18 744.112 87.5333 743.298 87.08C742.498 86.6267 741.418 86.4 740.058 86.4H737.478V97.6ZM756.064 99V96H748.964V94.7L755.764 85H757.724V94.52H759.804V96H757.724V99H756.064ZM750.824 94.52H756.144V86.86L750.824 94.52Z" fill="black"/>
<path d="M412.3 99L413.16 95.06H410.32V93.56H413.48L414.16 90.3H411.16V88.82H414.48L415.32 84.88H416.92L416.08 88.82H420.38L421.22 84.88H422.8L421.96 88.82H424.74V90.3H421.64L420.96 93.56H423.86V95.06H420.64L419.78 99H418.18L419.04 95.06H414.74L413.9 99H412.3ZM415.06 93.56H419.36L420.06 90.3H415.76L415.06 93.56ZM427.169 99V85H435.689V86.38H428.849V91.3H434.669V92.66H428.849V99H427.169ZM442.613 99.24C441.653 99.24 440.82 99.0667 440.113 98.72C439.406 98.3733 438.84 97.9 438.413 97.3C438 96.6867 437.746 95.9933 437.653 95.22H439.293C439.453 95.9933 439.826 96.62 440.413 97.1C441 97.5667 441.74 97.8 442.633 97.8C443.3 97.8 443.873 97.6467 444.353 97.34C444.833 97.02 445.2 96.5933 445.453 96.06C445.72 95.5267 445.853 94.9333 445.853 94.28C445.853 93.24 445.56 92.4 444.973 91.76C444.386 91.12 443.626 90.8 442.693 90.8C441.92 90.8 441.26 90.9733 440.713 91.32C440.166 91.6667 439.766 92.12 439.513 92.68H437.913L439.113 85H446.453V86.46H440.413L439.593 90.72C439.913 90.3333 440.353 90.0133 440.913 89.76C441.486 89.5067 442.14 89.38 442.873 89.38C443.793 89.38 444.593 89.5933 445.273 90.02C445.966 90.4467 446.506 91.0267 446.893 91.76C447.28 92.4933 447.473 93.3267 447.473 94.26C447.473 95.1533 447.28 95.98 446.893 96.74C446.52 97.5 445.966 98.1067 445.233 98.56C444.513 99.0133 443.64 99.24 442.613 99.24ZM456.439 99V96H449.339V94.7L456.139 85H458.099V94.52H460.179V96H458.099V99H456.439ZM451.199 94.52H456.519V86.86L451.199 94.52ZM468.349 99.24C466.975 99.24 465.789 98.94 464.789 98.34C463.802 97.7267 463.035 96.88 462.489 95.8C461.942 94.7067 461.669 93.44 461.669 92C461.669 90.5733 461.942 89.32 462.489 88.24C463.035 87.1467 463.802 86.2933 464.789 85.68C465.789 85.0667 466.975 84.76 468.349 84.76C469.949 84.76 471.249 85.1467 472.249 85.92C473.262 86.68 473.909 87.7467 474.189 89.12H472.329C472.115 88.2533 471.675 87.56 471.009 87.04C470.355 86.5067 469.469 86.24 468.349 86.24C467.349 86.24 466.475 86.4733 465.729 86.94C464.982 87.3933 464.402 88.0533 463.989 88.92C463.589 89.7733 463.389 90.8 463.389 92C463.389 93.2 463.589 94.2333 463.989 95.1C464.402 95.9533 464.982 96.6133 465.729 97.08C466.475 97.5333 467.349 97.76 468.349 97.76C469.469 97.76 470.355 97.5067 471.009 97C471.675 96.48 472.115 95.7933 472.329 94.94H474.189C473.909 96.2867 473.262 97.34 472.249 98.1C471.249 98.86 469.949 99.24 468.349 99.24ZM476.383 99V97.82C477.33 97.0733 478.223 96.32 479.063 95.56C479.916 94.7867 480.67 94.0267 481.323 93.28C481.99 92.5333 482.51 91.8 482.883 91.08C483.27 90.36 483.463 89.6667 483.463 89C483.463 88.5067 483.376 88.0467 483.203 87.62C483.043 87.1933 482.776 86.8533 482.403 86.6C482.03 86.3333 481.523 86.2 480.883 86.2C480.27 86.2 479.756 86.34 479.343 86.62C478.93 86.8867 478.616 87.2467 478.403 87.7C478.203 88.1533 478.103 88.64 478.103 89.16H476.483C476.483 88.24 476.676 87.4533 477.063 86.8C477.45 86.1333 477.976 85.6267 478.643 85.28C479.31 84.9333 480.063 84.76 480.903 84.76C482.143 84.76 483.156 85.1133 483.943 85.82C484.743 86.5133 485.143 87.5533 485.143 88.94C485.143 89.7667 484.936 90.5867 484.523 91.4C484.11 92.2 483.583 92.98 482.943 93.74C482.303 94.4867 481.616 95.1867 480.883 95.84C480.163 96.4933 479.49 97.08 478.863 97.6H485.623V99H476.383ZM488.048 99V85H492.968C493.955 85 494.768 85.16 495.408 85.48C496.062 85.7867 496.548 86.2133 496.868 86.76C497.188 87.2933 497.348 87.8933 497.348 88.56C497.348 89.4667 497.102 90.18 496.608 90.7C496.128 91.22 495.548 91.58 494.868 91.78C495.388 91.8733 495.862 92.08 496.288 92.4C496.715 92.72 497.048 93.12 497.288 93.6C497.542 94.08 497.668 94.6067 497.668 95.18C497.668 95.8867 497.495 96.5333 497.148 97.12C496.802 97.6933 496.288 98.1533 495.608 98.5C494.928 98.8333 494.102 99 493.128 99H488.048ZM489.728 91.12H492.848C493.742 91.12 494.428 90.9133 494.908 90.5C495.388 90.0733 495.628 89.4867 495.628 88.74C495.628 88.0333 495.388 87.4667 494.908 87.04C494.442 86.6133 493.735 86.4 492.788 86.4H489.728V91.12ZM489.728 97.6H492.948C493.908 97.6 494.648 97.38 495.168 96.94C495.688 96.4867 495.948 95.86 495.948 95.06C495.948 94.2733 495.675 93.6467 495.128 93.18C494.582 92.7 493.842 92.46 492.908 92.46H489.728V97.6Z" fill="white"/>
<path d="M803.154 99L804.014 95.06H801.174V93.56H804.334L805.014 90.3H802.014V88.82H805.334L806.174 84.88H807.774L806.934 88.82H811.234L812.074 84.88H813.654L812.814 88.82H815.594V90.3H812.494L811.814 93.56H814.714V95.06H811.494L810.634 99H809.034L809.894 95.06H805.594L804.754 99H803.154ZM805.914 93.56H810.214L810.914 90.3H806.614L805.914 93.56ZM823.483 99.24C822.243 99.24 821.17 98.94 820.263 98.34C819.37 97.7267 818.683 96.88 818.203 95.8C817.723 94.7067 817.483 93.44 817.483 92C817.483 90.56 817.723 89.3 818.203 88.22C818.683 87.1267 819.37 86.28 820.263 85.68C821.17 85.0667 822.243 84.76 823.483 84.76C824.723 84.76 825.79 85.0667 826.683 85.68C827.576 86.28 828.263 87.1267 828.743 88.22C829.223 89.3 829.463 90.56 829.463 92C829.463 93.44 829.223 94.7067 828.743 95.8C828.263 96.88 827.576 97.7267 826.683 98.34C825.79 98.94 824.723 99.24 823.483 99.24ZM823.483 97.76C824.296 97.76 825.023 97.5333 825.663 97.08C826.316 96.6133 826.823 95.9533 827.183 95.1C827.556 94.2333 827.743 93.2 827.743 92C827.743 90.8 827.556 89.7733 827.183 88.92C826.823 88.0667 826.316 87.4133 825.663 86.96C825.023 86.4933 824.296 86.26 823.483 86.26C822.656 86.26 821.923 86.4933 821.283 86.96C820.643 87.4133 820.136 88.0667 819.763 88.92C819.39 89.7733 819.203 90.8 819.203 92C819.203 93.2 819.39 94.2333 819.763 95.1C820.136 95.9533 820.643 96.6133 821.283 97.08C821.923 97.5333 822.656 97.76 823.483 97.76ZM837.35 99.24C836.11 99.24 835.037 98.94 834.13 98.34C833.237 97.7267 832.55 96.88 832.07 95.8C831.59 94.7067 831.35 93.44 831.35 92C831.35 90.56 831.59 89.3 832.07 88.22C832.55 87.1267 833.237 86.28 834.13 85.68C835.037 85.0667 836.11 84.76 837.35 84.76C838.59 84.76 839.657 85.0667 840.55 85.68C841.443 86.28 842.13 87.1267 842.61 88.22C843.09 89.3 843.33 90.56 843.33 92C843.33 93.44 843.09 94.7067 842.61 95.8C842.13 96.88 841.443 97.7267 840.55 98.34C839.657 98.94 838.59 99.24 837.35 99.24ZM837.35 97.76C838.163 97.76 838.89 97.5333 839.53 97.08C840.183 96.6133 840.69 95.9533 841.05 95.1C841.423 94.2333 841.61 93.2 841.61 92C841.61 90.8 841.423 89.7733 841.05 88.92C840.69 88.0667 840.183 87.4133 839.53 86.96C838.89 86.4933 838.163 86.26 837.35 86.26C836.523 86.26 835.79 86.4933 835.15 86.96C834.51 87.4133 834.003 88.0667 833.63 88.92C833.257 89.7733 833.07 90.8 833.07 92C833.07 93.2 833.257 94.2333 833.63 95.1C834.003 95.9533 834.51 96.6133 835.15 97.08C835.79 97.5333 836.523 97.76 837.35 97.76ZM851.217 99.24C849.977 99.24 848.904 98.94 847.997 98.34C847.104 97.7267 846.417 96.88 845.937 95.8C845.457 94.7067 845.217 93.44 845.217 92C845.217 90.56 845.457 89.3 845.937 88.22C846.417 87.1267 847.104 86.28 847.997 85.68C848.904 85.0667 849.977 84.76 851.217 84.76C852.457 84.76 853.524 85.0667 854.417 85.68C855.311 86.28 855.997 87.1267 856.477 88.22C856.957 89.3 857.197 90.56 857.197 92C857.197 93.44 856.957 94.7067 856.477 95.8C855.997 96.88 855.311 97.7267 854.417 98.34C853.524 98.94 852.457 99.24 851.217 99.24ZM851.217 97.76C852.031 97.76 852.757 97.5333 853.397 97.08C854.051 96.6133 854.557 95.9533 854.917 95.1C855.291 94.2333 855.477 93.2 855.477 92C855.477 90.8 855.291 89.7733 854.917 88.92C854.557 88.0667 854.051 87.4133 853.397 86.96C852.757 86.4933 852.031 86.26 851.217 86.26C850.391 86.26 849.657 86.4933 849.017 86.96C848.377 87.4133 847.871 88.0667 847.497 88.92C847.124 89.7733 846.937 90.8 846.937 92C846.937 93.2 847.124 94.2333 847.497 95.1C847.871 95.9533 848.377 96.6133 849.017 97.08C849.657 97.5333 850.391 97.76 851.217 97.76ZM865.085 99.24C863.845 99.24 862.771 98.94 861.865 98.34C860.971 97.7267 860.285 96.88 859.805 95.8C859.325 94.7067 859.085 93.44 859.085 92C859.085 90.56 859.325 89.3 859.805 88.22C860.285 87.1267 860.971 86.28 861.865 85.68C862.771 85.0667 863.845 84.76 865.085 84.76C866.325 84.76 867.391 85.0667 868.285 85.68C869.178 86.28 869.865 87.1267 870.345 88.22C870.825 89.3 871.065 90.56 871.065 92C871.065 93.44 870.825 94.7067 870.345 95.8C869.865 96.88 869.178 97.7267 868.285 98.34C867.391 98.94 866.325 99.24 865.085 99.24ZM865.085 97.76C865.898 97.76 866.625 97.5333 867.265 97.08C867.918 96.6133 868.425 95.9533 868.785 95.1C869.158 94.2333 869.345 93.2 869.345 92C869.345 90.8 869.158 89.7733 868.785 88.92C868.425 88.0667 867.918 87.4133 867.265 86.96C866.625 86.4933 865.898 86.26 865.085 86.26C864.258 86.26 863.525 86.4933 862.885 86.96C862.245 87.4133 861.738 88.0667 861.365 88.92C860.991 89.7733 860.805 90.8 860.805 92C860.805 93.2 860.991 94.2333 861.365 95.1C861.738 95.9533 862.245 96.6133 862.885 97.08C863.525 97.5333 864.258 97.76 865.085 97.76ZM878.952 99.24C877.712 99.24 876.638 98.94 875.732 98.34C874.838 97.7267 874.152 96.88 873.672 95.8C873.192 94.7067 872.952 93.44 872.952 92C872.952 90.56 873.192 89.3 873.672 88.22C874.152 87.1267 874.838 86.28 875.732 85.68C876.638 85.0667 877.712 84.76 878.952 84.76C880.192 84.76 881.258 85.0667 882.152 85.68C883.045 86.28 883.732 87.1267 884.212 88.22C884.692 89.3 884.932 90.56 884.932 92C884.932 93.44 884.692 94.7067 884.212 95.8C883.732 96.88 883.045 97.7267 882.152 98.34C881.258 98.94 880.192 99.24 878.952 99.24ZM878.952 97.76C879.765 97.76 880.492 97.5333 881.132 97.08C881.785 96.6133 882.292 95.9533 882.652 95.1C883.025 94.2333 883.212 93.2 883.212 92C883.212 90.8 883.025 89.7733 882.652 88.92C882.292 88.0667 881.785 87.4133 881.132 86.96C880.492 86.4933 879.765 86.26 878.952 86.26C878.125 86.26 877.392 86.4933 876.752 86.96C876.112 87.4133 875.605 88.0667 875.232 88.92C874.858 89.7733 874.672 90.8 874.672 92C874.672 93.2 874.858 94.2333 875.232 95.1C875.605 95.9533 876.112 96.6133 876.752 97.08C877.392 97.5333 878.125 97.76 878.952 97.76ZM892.819 99.24C891.579 99.24 890.506 98.94 889.599 98.34C888.706 97.7267 888.019 96.88 887.539 95.8C887.059 94.7067 886.819 93.44 886.819 92C886.819 90.56 887.059 89.3 887.539 88.22C888.019 87.1267 888.706 86.28 889.599 85.68C890.506 85.0667 891.579 84.76 892.819 84.76C894.059 84.76 895.126 85.0667 896.019 85.68C896.912 86.28 897.599 87.1267 898.079 88.22C898.559 89.3 898.799 90.56 898.799 92C898.799 93.44 898.559 94.7067 898.079 95.8C897.599 96.88 896.912 97.7267 896.019 98.34C895.126 98.94 894.059 99.24 892.819 99.24ZM892.819 97.76C893.632 97.76 894.359 97.5333 894.999 97.08C895.652 96.6133 896.159 95.9533 896.519 95.1C896.892 94.2333 897.079 93.2 897.079 92C897.079 90.8 896.892 89.7733 896.519 88.92C896.159 88.0667 895.652 87.4133 894.999 86.96C894.359 86.4933 893.632 86.26 892.819 86.26C891.992 86.26 891.259 86.4933 890.619 86.96C889.979 87.4133 889.472 88.0667 889.099 88.92C888.726 89.7733 888.539 90.8 888.539 92C888.539 93.2 888.726 94.2333 889.099 95.1C889.472 95.9533 889.979 96.6133 890.619 97.08C891.259 97.5333 891.992 97.76 892.819 97.76Z" fill="white"/>
</svg>
